solid sonicHouse2
facet normal -0.692117223202297 0.721785112998835 0.0
outer loop
vertex -1.8515410779765 22.8308137289333 15.875
vertex 0.0 24.60625 0.0
vertex -1.8515410779765 22.8308137289333 0.0
endloop
endfacet
facet normal -0.692117223202297 0.721785112998835 0.0
outer loop
vertex 0.0 24.60625 0.0
vertex -1.8515410779765 22.8308137289333 15.875
vertex 0.0 24.60625 15.875
endloop
endfacet
facet normal 0.692117223202298 0.721785112998835 0.0
outer loop
vertex 44.45 24.60625 15.875
vertex 46.3015410779765 22.8308137289333 0.0
vertex 44.45 24.60625 0.0
endloop
endfacet
facet normal 0.692117223202298 0.721785112998835 0.0
outer loop
vertex 46.3015410779765 22.8308137289333 0.0
vertex 44.45 24.60625 15.875
vertex 46.3015410779765 22.8308137289333 15.875
endloop
endfacet
facet normal 0.790136982165554 0.612930297353877 0.0
outer loop
vertex 46.3015410779765 22.8308137289333 0.0
vertex 47.8738450823802 20.8039347404909 15.875
vertex 47.8738450823802 20.8039347404909 0.0
endloop
endfacet
facet normal 0.790136982165554 0.612930297353877 0.0
outer loop
vertex 47.8738450823802 20.8039347404909 15.875
vertex 46.3015410779765 22.8308137289333 0.0
vertex 46.3015410779765 22.8308137289333 15.875
endloop
endfacet
facet normal 0.871202579080369 0.490923686741345 0.0
outer loop
vertex 47.8738450823802 20.8039347404909 0.0
vertex 49.1331747024894 18.5691042717597 15.875
vertex 49.1331747024894 18.5691042717597 0.0
endloop
endfacet
facet normal 0.871202579080369 0.490923686741345 0.0
outer loop
vertex 49.1331747024894 18.5691042717597 15.875
vertex 47.8738450823802 20.8039347404909 0.0
vertex 47.8738450823802 20.8039347404909 15.875
endloop
endfacet
facet normal 0.93357456965079 0.358383206779199 0.0
outer loop
vertex 49.1331747024894 18.5691042717597 0.0
vertex 50.0525081953231 16.1742756254872 15.875
vertex 50.0525081953231 16.1742756254872 0.0
endloop
endfacet
facet normal 0.93357456965079 0.358383206779199 0.0
outer loop
vertex 50.0525081953231 16.1742756254872 15.875
vertex 49.1331747024894 18.5691042717597 0.0
vertex 49.1331747024894 18.5691042717597 15.875
endloop
endfacet
facet normal 0.975914622854119 0.218152810890676 0.0
outer loop
vertex 50.0525081953231 16.1742756254872 0.0
vertex 50.612119197775 13.6708352243615 15.875
vertex 50.612119197775 13.6708352243615 0.0
endloop
endfacet
facet normal 0.975914622854119 0.218152810890676 0.0
outer loop
vertex 50.612119197775 13.6708352243615 15.875
vertex 50.0525081953231 16.1742756254872 0.0
vertex 50.0525081953231 16.1742756254872 15.875
endloop
endfacet
facet normal 0.997314237836261 0.0732414569016636 0.0
outer loop
vertex 50.612119197775 13.6708352243615 0.0
vertex 50.8 11.1125 15.875
vertex 50.8 11.1125 0.0
endloop
endfacet
facet normal 0.997314237836261 0.0732414569016636 0.0
outer loop
vertex 50.8 11.1125 15.875
vertex 50.612119197775 13.6708352243615 0.0
vertex 50.612119197775 13.6708352243615 15.875
endloop
endfacet
facet normal 0.997314237836261 -0.0732414569016637 0.0
outer loop
vertex 50.8 11.1125 0.0
vertex 50.612119197775 8.55416477563851 15.875
vertex 50.612119197775 8.55416477563851 0.0
endloop
endfacet
facet normal 0.997314237836261 -0.0732414569016637 0.0
outer loop
vertex 50.612119197775 8.55416477563851 15.875
vertex 50.8 11.1125 0.0
vertex 50.8 11.1125 15.875
endloop
endfacet
facet normal 0.975914622854119 -0.218152810890674 0.0
outer loop
vertex 50.612119197775 8.55416477563851 0.0
vertex 50.0525081953231 6.05072437451283 15.875
vertex 50.0525081953231 6.05072437451283 0.0
endloop
endfacet
facet normal 0.975914622854119 -0.218152810890674 0.0
outer loop
vertex 50.0525081953231 6.05072437451283 15.875
vertex 50.612119197775 8.55416477563851 0.0
vertex 50.612119197775 8.55416477563851 15.875
endloop
endfacet
facet normal 0.933574569650789 -0.358383206779201 0.0
outer loop
vertex 50.0525081953231 6.05072437451283 0.0
vertex 49.1331747024894 3.6558957282403 15.875
vertex 49.1331747024894 3.6558957282403 0.0
endloop
endfacet
facet normal 0.933574569650789 -0.358383206779201 0.0
outer loop
vertex 49.1331747024894 3.6558957282403 15.875
vertex 50.0525081953231 6.05072437451283 0.0
vertex 50.0525081953231 6.05072437451283 15.875
endloop
endfacet
facet normal 0.871202579080369 -0.490923686741345 0.0
outer loop
vertex 49.1331747024894 3.6558957282403 0.0
vertex 47.8738450823802 1.42106525950912 15.875
vertex 47.8738450823802 1.42106525950912 0.0
endloop
endfacet
facet normal 0.871202579080369 -0.490923686741345 0.0
outer loop
vertex 47.8738450823802 1.42106525950912 15.875
vertex 49.1331747024894 3.6558957282403 0.0
vertex 49.1331747024894 3.6558957282403 15.875
endloop
endfacet
facet normal 0.790136982165554 -0.612930297353876 0.0
outer loop
vertex 47.8738450823802 1.42106525950912 0.0
vertex 46.3015410779765 -0.605813728933339 15.875
vertex 46.3015410779765 -0.605813728933339 0.0
endloop
endfacet
facet normal 0.790136982165554 -0.612930297353876 0.0
outer loop
vertex 46.3015410779765 -0.605813728933339 15.875
vertex 47.8738450823802 1.42106525950912 0.0
vertex 47.8738450823802 1.42106525950912 15.875
endloop
endfacet
facet normal 0.692117223202298 -0.721785112998835 0.0
outer loop
vertex 46.3015410779765 -0.605813728933339 15.875
vertex 44.45 -2.38125 0.0
vertex 46.3015410779765 -0.605813728933339 0.0
endloop
endfacet
facet normal 0.692117223202298 -0.721785112998835 0.0
outer loop
vertex 44.45 -2.38125 0.0
vertex 46.3015410779765 -0.605813728933339 15.875
vertex 44.45 -2.38125 15.875
endloop
endfacet
facet normal -0.692117223202297 -0.721785112998835 -0.0
outer loop
vertex 2.8199664825479e-015 -2.38125 15.875
vertex -1.8515410779765 -0.605813728933339 0.0
vertex 2.8199664825479e-015 -2.38125 0.0
endloop
endfacet
facet normal -0.692117223202297 -0.721785112998835 -0.0
outer loop
vertex -1.8515410779765 -0.605813728933339 0.0
vertex 2.8199664825479e-015 -2.38125 15.875
vertex -1.8515410779765 -0.605813728933339 15.875
endloop
endfacet
facet normal -0.790136982165554 -0.612930297353876 -0.0
outer loop
vertex -3.4238450823802 1.42106525950912 15.875
vertex -1.8515410779765 -0.605813728933339 0.0
vertex -1.8515410779765 -0.605813728933339 15.875
endloop
endfacet
facet normal -0.790136982165554 -0.612930297353876 -0.0
outer loop
vertex -1.8515410779765 -0.605813728933339 0.0
vertex -3.4238450823802 1.42106525950912 15.875
vertex -3.4238450823802 1.42106525950912 0.0
endloop
endfacet
facet normal -0.871202579080369 -0.490923686741345 -0.0
outer loop
vertex -4.68317470248936 3.6558957282403 15.875
vertex -3.4238450823802 1.42106525950912 0.0
vertex -3.4238450823802 1.42106525950912 15.875
endloop
endfacet
facet normal -0.871202579080369 -0.490923686741345 -0.0
outer loop
vertex -3.4238450823802 1.42106525950912 0.0
vertex -4.68317470248936 3.6558957282403 15.875
vertex -4.68317470248936 3.6558957282403 0.0
endloop
endfacet
facet normal -0.933574569650789 -0.358383206779201 -0.0
outer loop
vertex -5.60250819532313 6.05072437451283 15.875
vertex -4.68317470248936 3.6558957282403 0.0
vertex -4.68317470248936 3.6558957282403 15.875
endloop
endfacet
facet normal -0.933574569650789 -0.358383206779201 -0.0
outer loop
vertex -4.68317470248936 3.6558957282403 0.0
vertex -5.60250819532313 6.05072437451283 15.875
vertex -5.60250819532313 6.05072437451283 0.0
endloop
endfacet
facet normal -0.975914622854119 -0.218152810890675 -0.0
outer loop
vertex -6.16211919777501 8.55416477563851 15.875
vertex -5.60250819532313 6.05072437451283 0.0
vertex -5.60250819532313 6.05072437451283 15.875
endloop
endfacet
facet normal -0.975914622854119 -0.218152810890675 -0.0
outer loop
vertex -5.60250819532313 6.05072437451283 0.0
vertex -6.16211919777501 8.55416477563851 15.875
vertex -6.16211919777501 8.55416477563851 0.0
endloop
endfacet
facet normal -0.997314237836261 -0.0732414569016626 -0.0
outer loop
vertex -6.35 11.1125 15.875
vertex -6.16211919777501 8.55416477563851 0.0
vertex -6.16211919777501 8.55416477563851 15.875
endloop
endfacet
facet normal -0.997314237836261 -0.0732414569016626 -0.0
outer loop
vertex -6.16211919777501 8.55416477563851 0.0
vertex -6.35 11.1125 15.875
vertex -6.35 11.1125 0.0
endloop
endfacet
facet normal -0.997314237836261 0.0732414569016625 0.0
outer loop
vertex -6.16211919777501 13.6708352243615 15.875
vertex -6.35 11.1125 0.0
vertex -6.35 11.1125 15.875
endloop
endfacet
facet normal -0.997314237836261 0.0732414569016625 0.0
outer loop
vertex -6.35 11.1125 0.0
vertex -6.16211919777501 13.6708352243615 15.875
vertex -6.16211919777501 13.6708352243615 0.0
endloop
endfacet
facet normal -0.975914622854119 0.218152810890676 0.0
outer loop
vertex -5.60250819532313 16.1742756254872 15.875
vertex -6.16211919777501 13.6708352243615 0.0
vertex -6.16211919777501 13.6708352243615 15.875
endloop
endfacet
facet normal -0.975914622854119 0.218152810890676 0.0
outer loop
vertex -6.16211919777501 13.6708352243615 0.0
vertex -5.60250819532313 16.1742756254872 15.875
vertex -5.60250819532313 16.1742756254872 0.0
endloop
endfacet
facet normal -0.93357456965079 0.3583832067792 0.0
outer loop
vertex -4.68317470248936 18.5691042717597 15.875
vertex -5.60250819532313 16.1742756254872 0.0
vertex -5.60250819532313 16.1742756254872 15.875
endloop
endfacet
facet normal -0.93357456965079 0.3583832067792 0.0
outer loop
vertex -5.60250819532313 16.1742756254872 0.0
vertex -4.68317470248936 18.5691042717597 15.875
vertex -4.68317470248936 18.5691042717597 0.0
endloop
endfacet
facet normal -0.871202579080369 0.490923686741345 0.0
outer loop
vertex -3.4238450823802 20.8039347404909 15.875
vertex -4.68317470248936 18.5691042717597 0.0
vertex -4.68317470248936 18.5691042717597 15.875
endloop
endfacet
facet normal -0.871202579080369 0.490923686741345 0.0
outer loop
vertex -4.68317470248936 18.5691042717597 0.0
vertex -3.4238450823802 20.8039347404909 15.875
vertex -3.4238450823802 20.8039347404909 0.0
endloop
endfacet
facet normal -0.790136982165554 0.612930297353876 0.0
outer loop
vertex -1.8515410779765 22.8308137289333 15.875
vertex -3.4238450823802 20.8039347404909 0.0
vertex -3.4238450823802 20.8039347404909 15.875
endloop
endfacet
facet normal -0.790136982165554 0.612930297353876 0.0
outer loop
vertex -3.4238450823802 20.8039347404909 0.0
vertex -1.8515410779765 22.8308137289333 15.875
vertex -1.8515410779765 22.8308137289333 0.0
endloop
endfacet
facet normal 0.99144486137381 0.13052619222005 -0.0
outer loop
vertex 44.1524898707864 13.3723137875514 0.0
vertex 44.45 11.1125 3.175
vertex 44.45 11.1125 0.0
endloop
endfacet
facet normal 0.99144486137381 0.13052619222005 -0.0
outer loop
vertex 44.45 11.1125 3.175
vertex 44.1524898707864 13.3723137875514 0.0
vertex 44.1524898707864 13.3723137875514 3.175
endloop
endfacet
facet normal 0.923879532511287 0.382683432365089 -0.0
outer loop
vertex 43.2802343067929 15.478125 0.0
vertex 44.1524898707864 13.3723137875514 3.175
vertex 44.1524898707864 13.3723137875514 0.0
endloop
endfacet
facet normal 0.923879532511287 0.382683432365089 -0.0
outer loop
vertex 44.1524898707864 13.3723137875514 3.175
vertex 43.2802343067929 15.478125 0.0
vertex 43.2802343067929 15.478125 3.175
endloop
endfacet
facet normal 0.793353340291234 0.608761429008722 0.0
outer loop
vertex 41.892676083235 17.286426083235 0.0
vertex 43.2802343067929 15.478125 3.175
vertex 43.2802343067929 15.478125 0.0
endloop
endfacet
facet normal 0.793353340291234 0.608761429008722 0.0
outer loop
vertex 43.2802343067929 15.478125 3.175
vertex 41.892676083235 17.286426083235 0.0
vertex 41.892676083235 17.286426083235 3.175
endloop
endfacet
facet normal 0.608761429008721 0.793353340291235 0.0
outer loop
vertex 40.084375 18.6739843067929 3.175
vertex 41.892676083235 17.286426083235 0.0
vertex 40.084375 18.6739843067929 0.0
endloop
endfacet
facet normal 0.608761429008721 0.793353340291235 0.0
outer loop
vertex 41.892676083235 17.286426083235 0.0
vertex 40.084375 18.6739843067929 3.175
vertex 41.892676083235 17.286426083235 3.175
endloop
endfacet
facet normal 0.382683432365091 0.923879532511286 0.0
outer loop
vertex 37.9785637875514 19.5462398707864 3.175
vertex 40.084375 18.6739843067929 0.0
vertex 37.9785637875514 19.5462398707864 0.0
endloop
endfacet
facet normal 0.382683432365091 0.923879532511286 0.0
outer loop
vertex 40.084375 18.6739843067929 0.0
vertex 37.9785637875514 19.5462398707864 3.175
vertex 40.084375 18.6739843067929 3.175
endloop
endfacet
facet normal 0.130526192220052 0.99144486137381 0.0
outer loop
vertex 35.71875 19.84375 3.175
vertex 37.9785637875514 19.5462398707864 0.0
vertex 35.71875 19.84375 0.0
endloop
endfacet
facet normal 0.130526192220052 0.99144486137381 0.0
outer loop
vertex 37.9785637875514 19.5462398707864 0.0
vertex 35.71875 19.84375 3.175
vertex 37.9785637875514 19.5462398707864 3.175
endloop
endfacet
facet normal -0.130526192220052 0.99144486137381 -0.0
outer loop
vertex 33.4589362124486 19.5462398707864 3.175
vertex 35.71875 19.84375 0.0
vertex 33.4589362124486 19.5462398707864 0.0
endloop
endfacet
facet normal -0.130526192220052 0.99144486137381 -0.0
outer loop
vertex 35.71875 19.84375 0.0
vertex 33.4589362124486 19.5462398707864 3.175
vertex 35.71875 19.84375 3.175
endloop
endfacet
facet normal -0.382683432365089 0.923879532511287 -0.0
outer loop
vertex 31.353125 18.6739843067929 3.175
vertex 33.4589362124486 19.5462398707864 0.0
vertex 31.353125 18.6739843067929 0.0
endloop
endfacet
facet normal -0.382683432365089 0.923879532511287 -0.0
outer loop
vertex 33.4589362124486 19.5462398707864 0.0
vertex 31.353125 18.6739843067929 3.175
vertex 33.4589362124486 19.5462398707864 3.175
endloop
endfacet
facet normal -0.608761429008721 0.793353340291235 -0.0
outer loop
vertex 29.544823916765 17.286426083235 3.175
vertex 31.353125 18.6739843067929 0.0
vertex 29.544823916765 17.286426083235 0.0
endloop
endfacet
facet normal -0.608761429008721 0.793353340291235 -0.0
outer loop
vertex 31.353125 18.6739843067929 0.0
vertex 29.544823916765 17.286426083235 3.175
vertex 31.353125 18.6739843067929 3.175
endloop
endfacet
facet normal -0.793353340291235 0.608761429008721 -0.0
outer loop
vertex 29.544823916765 17.286426083235 3.175
vertex 28.1572656932071 15.478125 0.0
vertex 28.1572656932071 15.478125 3.175
endloop
endfacet
facet normal -0.793353340291235 0.608761429008721 -0.0
outer loop
vertex 28.1572656932071 15.478125 0.0
vertex 29.544823916765 17.286426083235 3.175
vertex 29.544823916765 17.286426083235 0.0
endloop
endfacet
facet normal -0.923879532511286 0.382683432365091 -0.0
outer loop
vertex 28.1572656932071 15.478125 3.175
vertex 27.2850101292136 13.3723137875514 0.0
vertex 27.2850101292136 13.3723137875514 3.175
endloop
endfacet
facet normal -0.923879532511286 0.382683432365091 -0.0
outer loop
vertex 27.2850101292136 13.3723137875514 0.0
vertex 28.1572656932071 15.478125 3.175
vertex 28.1572656932071 15.478125 0.0
endloop
endfacet
facet normal -0.991444861373811 0.13052619222005 0.0
outer loop
vertex 27.2850101292136 13.3723137875514 3.175
vertex 26.9875 11.1125 0.0
vertex 26.9875 11.1125 3.175
endloop
endfacet
facet normal -0.991444861373811 0.13052619222005 0.0
outer loop
vertex 26.9875 11.1125 0.0
vertex 27.2850101292136 13.3723137875514 3.175
vertex 27.2850101292136 13.3723137875514 0.0
endloop
endfacet
facet normal -0.991444861373811 -0.130526192220051 0.0
outer loop
vertex 26.9875 11.1125 3.175
vertex 27.2850101292136 8.85268621244862 0.0
vertex 27.2850101292136 8.85268621244862 3.175
endloop
endfacet
facet normal -0.991444861373811 -0.130526192220051 0.0
outer loop
vertex 27.2850101292136 8.85268621244862 0.0
vertex 26.9875 11.1125 3.175
vertex 26.9875 11.1125 0.0
endloop
endfacet
facet normal -0.923879532511287 -0.382683432365089 -0.0
outer loop
vertex 27.2850101292136 8.85268621244862 3.175
vertex 28.1572656932071 6.746875 0.0
vertex 28.1572656932071 6.746875 3.175
endloop
endfacet
facet normal -0.923879532511287 -0.382683432365089 -0.0
outer loop
vertex 28.1572656932071 6.746875 0.0
vertex 27.2850101292136 8.85268621244862 3.175
vertex 27.2850101292136 8.85268621244862 0.0
endloop
endfacet
facet normal -0.793353340291235 -0.608761429008721 -0.0
outer loop
vertex 28.1572656932071 6.746875 3.175
vertex 29.544823916765 4.93857391676496 0.0
vertex 29.544823916765 4.93857391676496 3.175
endloop
endfacet
facet normal -0.793353340291235 -0.608761429008721 -0.0
outer loop
vertex 29.544823916765 4.93857391676496 0.0
vertex 28.1572656932071 6.746875 3.175
vertex 28.1572656932071 6.746875 0.0
endloop
endfacet
facet normal -0.608761429008721 -0.793353340291235 -0.0
outer loop
vertex 31.353125 3.55101569320712 3.175
vertex 29.544823916765 4.93857391676496 0.0
vertex 31.353125 3.55101569320712 0.0
endloop
endfacet
facet normal -0.608761429008721 -0.793353340291235 -0.0
outer loop
vertex 29.544823916765 4.93857391676496 0.0
vertex 31.353125 3.55101569320712 3.175
vertex 29.544823916765 4.93857391676496 3.175
endloop
endfacet
facet normal -0.38268343236509 -0.923879532511287 -0.0
outer loop
vertex 33.4589362124486 2.67876012921357 3.175
vertex 31.353125 3.55101569320712 0.0
vertex 33.4589362124486 2.67876012921357 0.0
endloop
endfacet
facet normal -0.38268343236509 -0.923879532511287 -0.0
outer loop
vertex 31.353125 3.55101569320712 0.0
vertex 33.4589362124486 2.67876012921357 3.175
vertex 31.353125 3.55101569320712 3.175
endloop
endfacet
facet normal -0.130526192220052 -0.99144486137381 -0.0
outer loop
vertex 35.71875 2.38125 3.175
vertex 33.4589362124486 2.67876012921357 0.0
vertex 35.71875 2.38125 0.0
endloop
endfacet
facet normal -0.130526192220052 -0.99144486137381 -0.0
outer loop
vertex 33.4589362124486 2.67876012921357 0.0
vertex 35.71875 2.38125 3.175
vertex 33.4589362124486 2.67876012921357 3.175
endloop
endfacet
facet normal 0.130526192220051 -0.99144486137381 -0.0
outer loop
vertex 37.9785637875514 2.67876012921357 3.175
vertex 35.71875 2.38125 0.0
vertex 37.9785637875514 2.67876012921357 0.0
endloop
endfacet
facet normal 0.130526192220051 -0.99144486137381 -0.0
outer loop
vertex 35.71875 2.38125 0.0
vertex 37.9785637875514 2.67876012921357 3.175
vertex 35.71875 2.38125 3.175
endloop
endfacet
facet normal 0.382683432365089 -0.923879532511287 -0.0
outer loop
vertex 40.084375 3.55101569320712 3.175
vertex 37.9785637875514 2.67876012921357 0.0
vertex 40.084375 3.55101569320712 0.0
endloop
endfacet
facet normal 0.382683432365089 -0.923879532511287 -0.0
outer loop
vertex 37.9785637875514 2.67876012921357 0.0
vertex 40.084375 3.55101569320712 3.175
vertex 37.9785637875514 2.67876012921357 3.175
endloop
endfacet
facet normal 0.60876142900872 -0.793353340291236 -0.0
outer loop
vertex 41.892676083235 4.93857391676496 3.175
vertex 40.084375 3.55101569320712 0.0
vertex 41.892676083235 4.93857391676496 0.0
endloop
endfacet
facet normal 0.60876142900872 -0.793353340291236 -0.0
outer loop
vertex 40.084375 3.55101569320712 0.0
vertex 41.892676083235 4.93857391676496 3.175
vertex 40.084375 3.55101569320712 3.175
endloop
endfacet
facet normal 0.793353340291235 -0.608761429008721 -0.0
outer loop
vertex 43.2802343067929 6.746875 0.0
vertex 41.892676083235 4.93857391676496 3.175
vertex 41.892676083235 4.93857391676496 0.0
endloop
endfacet
facet normal 0.793353340291235 -0.608761429008721 -0.0
outer loop
vertex 41.892676083235 4.93857391676496 3.175
vertex 43.2802343067929 6.746875 0.0
vertex 43.2802343067929 6.746875 3.175
endloop
endfacet
facet normal 0.923879532511287 -0.38268343236509 -0.0
outer loop
vertex 44.1524898707864 8.85268621244861 0.0
vertex 43.2802343067929 6.746875 3.175
vertex 43.2802343067929 6.746875 0.0
endloop
endfacet
facet normal 0.923879532511287 -0.38268343236509 -0.0
outer loop
vertex 43.2802343067929 6.746875 3.175
vertex 44.1524898707864 8.85268621244861 0.0
vertex 44.1524898707864 8.85268621244861 3.175
endloop
endfacet
facet normal 0.99144486137381 -0.130526192220053 -0.0
outer loop
vertex 44.45 11.1125 0.0
vertex 44.1524898707864 8.85268621244861 3.175
vertex 44.1524898707864 8.85268621244861 0.0
endloop
endfacet
facet normal 0.99144486137381 -0.130526192220053 -0.0
outer loop
vertex 44.1524898707864 8.85268621244861 3.175
vertex 44.45 11.1125 0.0
vertex 44.45 11.1125 3.175
endloop
endfacet
facet normal -0.99144486137381 -0.130526192220051 0.0
outer loop
vertex 0.0 11.1125 3.175
vertex 0.297510129213572 8.85268621244862 0.0
vertex 0.297510129213572 8.85268621244862 3.175
endloop
endfacet
facet normal -0.99144486137381 -0.130526192220051 0.0
outer loop
vertex 0.297510129213572 8.85268621244862 0.0
vertex 0.0 11.1125 3.175
vertex 0.0 11.1125 0.0
endloop
endfacet
facet normal -0.923879532511287 -0.38268343236509 -0.0
outer loop
vertex 0.297510129213572 8.85268621244862 3.175
vertex 1.16976569320712 6.746875 0.0
vertex 1.16976569320712 6.746875 3.175
endloop
endfacet
facet normal -0.923879532511287 -0.38268343236509 -0.0
outer loop
vertex 1.16976569320712 6.746875 0.0
vertex 0.297510129213572 8.85268621244862 3.175
vertex 0.297510129213572 8.85268621244862 0.0
endloop
endfacet
facet normal -0.793353340291236 -0.60876142900872 -0.0
outer loop
vertex 1.16976569320712 6.746875 3.175
vertex 2.55732391676495 4.93857391676496 0.0
vertex 2.55732391676495 4.93857391676496 3.175
endloop
endfacet
facet normal -0.793353340291236 -0.60876142900872 -0.0
outer loop
vertex 2.55732391676495 4.93857391676496 0.0
vertex 1.16976569320712 6.746875 3.175
vertex 1.16976569320712 6.746875 0.0
endloop
endfacet
facet normal -0.608761429008721 -0.793353340291235 -0.0
outer loop
vertex 4.365625 3.55101569320712 3.175
vertex 2.55732391676495 4.93857391676496 0.0
vertex 4.365625 3.55101569320712 0.0
endloop
endfacet
facet normal -0.608761429008721 -0.793353340291235 -0.0
outer loop
vertex 2.55732391676495 4.93857391676496 0.0
vertex 4.365625 3.55101569320712 3.175
vertex 2.55732391676495 4.93857391676496 3.175
endloop
endfacet
facet normal -0.38268343236509 -0.923879532511287 -0.0
outer loop
vertex 6.47143621244861 2.67876012921357 3.175
vertex 4.365625 3.55101569320712 0.0
vertex 6.47143621244861 2.67876012921357 0.0
endloop
endfacet
facet normal -0.38268343236509 -0.923879532511287 -0.0
outer loop
vertex 4.365625 3.55101569320712 0.0
vertex 6.47143621244861 2.67876012921357 3.175
vertex 4.365625 3.55101569320712 3.175
endloop
endfacet
facet normal -0.130526192220052 -0.99144486137381 -0.0
outer loop
vertex 8.73125 2.38125 3.175
vertex 6.47143621244861 2.67876012921357 0.0
vertex 8.73125 2.38125 0.0
endloop
endfacet
facet normal -0.130526192220052 -0.99144486137381 -0.0
outer loop
vertex 6.47143621244861 2.67876012921357 0.0
vertex 8.73125 2.38125 3.175
vertex 6.47143621244861 2.67876012921357 3.175
endloop
endfacet
facet normal 0.130526192220051 -0.99144486137381 -0.0
outer loop
vertex 10.9910637875514 2.67876012921357 3.175
vertex 8.73125 2.38125 0.0
vertex 10.9910637875514 2.67876012921357 0.0
endloop
endfacet
facet normal 0.130526192220051 -0.99144486137381 -0.0
outer loop
vertex 8.73125 2.38125 0.0
vertex 10.9910637875514 2.67876012921357 3.175
vertex 8.73125 2.38125 3.175
endloop
endfacet
facet normal 0.382683432365089 -0.923879532511287 -0.0
outer loop
vertex 13.096875 3.55101569320712 3.175
vertex 10.9910637875514 2.67876012921357 0.0
vertex 13.096875 3.55101569320712 0.0
endloop
endfacet
facet normal 0.382683432365089 -0.923879532511287 -0.0
outer loop
vertex 10.9910637875514 2.67876012921357 0.0
vertex 13.096875 3.55101569320712 3.175
vertex 10.9910637875514 2.67876012921357 3.175
endloop
endfacet
facet normal 0.60876142900872 -0.793353340291236 -0.0
outer loop
vertex 14.905176083235 4.93857391676496 3.175
vertex 13.096875 3.55101569320712 0.0
vertex 14.905176083235 4.93857391676496 0.0
endloop
endfacet
facet normal 0.60876142900872 -0.793353340291236 -0.0
outer loop
vertex 13.096875 3.55101569320712 0.0
vertex 14.905176083235 4.93857391676496 3.175
vertex 13.096875 3.55101569320712 3.175
endloop
endfacet
facet normal 0.793353340291235 -0.608761429008721 -0.0
outer loop
vertex 16.2927343067929 6.746875 0.0
vertex 14.905176083235 4.93857391676496 3.175
vertex 14.905176083235 4.93857391676496 0.0
endloop
endfacet
facet normal 0.793353340291235 -0.608761429008721 -0.0
outer loop
vertex 14.905176083235 4.93857391676496 3.175
vertex 16.2927343067929 6.746875 0.0
vertex 16.2927343067929 6.746875 3.175
endloop
endfacet
facet normal 0.923879532511287 -0.38268343236509 -0.0
outer loop
vertex 17.1649898707864 8.85268621244861 0.0
vertex 16.2927343067929 6.746875 3.175
vertex 16.2927343067929 6.746875 0.0
endloop
endfacet
facet normal 0.923879532511287 -0.38268343236509 -0.0
outer loop
vertex 16.2927343067929 6.746875 3.175
vertex 17.1649898707864 8.85268621244861 0.0
vertex 17.1649898707864 8.85268621244861 3.175
endloop
endfacet
facet normal 0.99144486137381 -0.130526192220053 -0.0
outer loop
vertex 17.4625 11.1125 0.0
vertex 17.1649898707864 8.85268621244861 3.175
vertex 17.1649898707864 8.85268621244861 0.0
endloop
endfacet
facet normal 0.99144486137381 -0.130526192220053 -0.0
outer loop
vertex 17.1649898707864 8.85268621244861 3.175
vertex 17.4625 11.1125 0.0
vertex 17.4625 11.1125 3.175
endloop
endfacet
facet normal 0.99144486137381 0.130526192220052 -0.0
outer loop
vertex 17.1649898707864 13.3723137875514 0.0
vertex 17.4625 11.1125 3.175
vertex 17.4625 11.1125 0.0
endloop
endfacet
facet normal 0.99144486137381 0.130526192220052 -0.0
outer loop
vertex 17.4625 11.1125 3.175
vertex 17.1649898707864 13.3723137875514 0.0
vertex 17.1649898707864 13.3723137875514 3.175
endloop
endfacet
facet normal 0.923879532511287 0.382683432365089 0.0
outer loop
vertex 16.2927343067929 15.478125 0.0
vertex 17.1649898707864 13.3723137875514 3.175
vertex 17.1649898707864 13.3723137875514 0.0
endloop
endfacet
facet normal 0.923879532511287 0.382683432365089 0.0
outer loop
vertex 17.1649898707864 13.3723137875514 3.175
vertex 16.2927343067929 15.478125 0.0
vertex 16.2927343067929 15.478125 3.175
endloop
endfacet
facet normal 0.793353340291235 0.608761429008721 0.0
outer loop
vertex 14.905176083235 17.286426083235 0.0
vertex 16.2927343067929 15.478125 3.175
vertex 16.2927343067929 15.478125 0.0
endloop
endfacet
facet normal 0.793353340291235 0.608761429008721 0.0
outer loop
vertex 16.2927343067929 15.478125 3.175
vertex 14.905176083235 17.286426083235 0.0
vertex 14.905176083235 17.286426083235 3.175
endloop
endfacet
facet normal 0.608761429008721 0.793353340291235 0.0
outer loop
vertex 13.096875 18.6739843067929 3.175
vertex 14.905176083235 17.286426083235 0.0
vertex 13.096875 18.6739843067929 0.0
endloop
endfacet
facet normal 0.608761429008721 0.793353340291235 0.0
outer loop
vertex 14.905176083235 17.286426083235 0.0
vertex 13.096875 18.6739843067929 3.175
vertex 14.905176083235 17.286426083235 3.175
endloop
endfacet
facet normal 0.382683432365091 0.923879532511287 0.0
outer loop
vertex 10.9910637875514 19.5462398707864 3.175
vertex 13.096875 18.6739843067929 0.0
vertex 10.9910637875514 19.5462398707864 0.0
endloop
endfacet
facet normal 0.382683432365091 0.923879532511287 0.0
outer loop
vertex 13.096875 18.6739843067929 0.0
vertex 10.9910637875514 19.5462398707864 3.175
vertex 13.096875 18.6739843067929 3.175
endloop
endfacet
facet normal 0.130526192220052 0.99144486137381 0.0
outer loop
vertex 8.73125 19.84375 3.175
vertex 10.9910637875514 19.5462398707864 0.0
vertex 8.73125 19.84375 0.0
endloop
endfacet
facet normal 0.130526192220052 0.99144486137381 0.0
outer loop
vertex 10.9910637875514 19.5462398707864 0.0
vertex 8.73125 19.84375 3.175
vertex 10.9910637875514 19.5462398707864 3.175
endloop
endfacet
facet normal -0.130526192220052 0.99144486137381 -0.0
outer loop
vertex 6.47143621244862 19.5462398707864 3.175
vertex 8.73125 19.84375 0.0
vertex 6.47143621244862 19.5462398707864 0.0
endloop
endfacet
facet normal -0.130526192220052 0.99144486137381 -0.0
outer loop
vertex 8.73125 19.84375 0.0
vertex 6.47143621244862 19.5462398707864 3.175
vertex 8.73125 19.84375 3.175
endloop
endfacet
facet normal -0.382683432365089 0.923879532511287 -0.0
outer loop
vertex 4.365625 18.6739843067929 3.175
vertex 6.47143621244862 19.5462398707864 0.0
vertex 4.365625 18.6739843067929 0.0
endloop
endfacet
facet normal -0.382683432365089 0.923879532511287 -0.0
outer loop
vertex 6.47143621244862 19.5462398707864 0.0
vertex 4.365625 18.6739843067929 3.175
vertex 6.47143621244862 19.5462398707864 3.175
endloop
endfacet
facet normal -0.608761429008721 0.793353340291235 -0.0
outer loop
vertex 2.55732391676496 17.286426083235 3.175
vertex 4.365625 18.6739843067929 0.0
vertex 2.55732391676496 17.286426083235 0.0
endloop
endfacet
facet normal -0.608761429008721 0.793353340291235 -0.0
outer loop
vertex 4.365625 18.6739843067929 0.0
vertex 2.55732391676496 17.286426083235 3.175
vertex 4.365625 18.6739843067929 3.175
endloop
endfacet
facet normal -0.793353340291235 0.608761429008721 -0.0
outer loop
vertex 2.55732391676496 17.286426083235 3.175
vertex 1.16976569320712 15.478125 0.0
vertex 1.16976569320712 15.478125 3.175
endloop
endfacet
facet normal -0.793353340291235 0.608761429008721 -0.0
outer loop
vertex 1.16976569320712 15.478125 0.0
vertex 2.55732391676496 17.286426083235 3.175
vertex 2.55732391676496 17.286426083235 0.0
endloop
endfacet
facet normal -0.923879532511287 0.38268343236509 0.0
outer loop
vertex 1.16976569320712 15.478125 3.175
vertex 0.297510129213573 13.3723137875514 0.0
vertex 0.297510129213573 13.3723137875514 3.175
endloop
endfacet
facet normal -0.923879532511287 0.38268343236509 0.0
outer loop
vertex 0.297510129213573 13.3723137875514 0.0
vertex 1.16976569320712 15.478125 3.175
vertex 1.16976569320712 15.478125 0.0
endloop
endfacet
facet normal -0.99144486137381 0.130526192220052 0.0
outer loop
vertex 0.297510129213573 13.3723137875514 3.175
vertex 0.0 11.1125 0.0
vertex 0.0 11.1125 3.175
endloop
endfacet
facet normal -0.99144486137381 0.130526192220052 0.0
outer loop
vertex 0.0 11.1125 0.0
vertex 0.297510129213573 13.3723137875514 3.175
vertex 0.297510129213573 13.3723137875514 0.0
endloop
endfacet
facet normal 0.0 0.0 1.0
outer loop
vertex 26.9875 4.04029174329141 6.35
vertex 17.4625 16.9710114021324 6.35
vertex 17.4625 4.04029174329141 6.35
endloop
endfacet
facet normal 0.0 0.0 1.0
outer loop
vertex 17.4625 16.9710114021324 6.35
vertex 26.9875 4.04029174329141 6.35
vertex 26.9875 16.9710114021324 6.35
endloop
endfacet
facet normal 1.0 -0.0 -0.0
outer loop
vertex 26.9875 11.1125 3.175
vertex 26.9875 4.04029174329141 6.35
vertex 26.9875 4.04029174329141 3.175
endloop
endfacet
facet normal 1.0 -0.0 -0.0
outer loop
vertex 26.9875 4.04029174329141 6.35
vertex 26.9875 11.1125 3.175
vertex 26.9875 16.9710114021324 6.35
endloop
endfacet
facet normal 1.0 -0.0 -0.0
outer loop
vertex 26.9875 16.9710114021324 6.35
vertex 26.9875 11.1125 3.175
vertex 26.9875 16.9710114021324 3.175
endloop
endfacet
facet normal 0.0 1.0 0.0
outer loop
vertex 17.4625 16.9710114021324 6.35
vertex 26.9875 16.9710114021324 3.175
vertex 17.4625 16.9710114021324 3.175
endloop
endfacet
facet normal 0.0 1.0 0.0
outer loop
vertex 26.9875 16.9710114021324 3.175
vertex 17.4625 16.9710114021324 6.35
vertex 26.9875 16.9710114021324 6.35
endloop
endfacet
facet normal -1.0 0.0 0.0
outer loop
vertex 17.4625 16.9710114021324 6.35
vertex 17.4625 4.04029174329141 3.175
vertex 17.4625 4.04029174329141 6.35
endloop
endfacet
facet normal -1.0 0.0 0.0
outer loop
vertex 17.4625 4.04029174329141 3.175
vertex 17.4625 16.9710114021324 6.35
vertex 17.4625 11.1125 3.175
endloop
endfacet
facet normal -1.0 0.0 0.0
outer loop
vertex 17.4625 11.1125 3.175
vertex 17.4625 16.9710114021324 6.35
vertex 17.4625 16.9710114021324 3.175
endloop
endfacet
facet normal 1.48029736616688e-016 -1.0 0.0
outer loop
vertex 26.9875 4.04029174329141 6.35
vertex 17.4625 4.04029174329141 3.175
vertex 26.9875 4.04029174329141 3.175
endloop
endfacet
facet normal 1.48029736616688e-016 -1.0 0.0
outer loop
vertex 17.4625 4.04029174329141 3.175
vertex 26.9875 4.04029174329141 6.35
vertex 17.4625 4.04029174329141 6.35
endloop
endfacet
facet normal 1.0 0.0 0.0
outer loop
vertex 16.7109902 -7.04991620636974e-016 3.175
vertex 16.7109902 -2.38125 15.875
vertex 16.7109902 -2.38125 3.175
endloop
endfacet
facet normal 1.0 0.0 0.0
outer loop
vertex 16.7109902 -2.38125 15.875
vertex 16.7109902 -7.04991620636974e-016 3.175
vertex 16.7109902 -7.04991620636974e-016 15.875
endloop
endfacet
facet normal 4.11190888446556e-017 1.0 5.54622993380386e-019
outer loop
vertex -0.5936742 0.0 15.875
vertex 0.0 0.0 3.175
vertex -0.5936742 0.0 3.175
endloop
endfacet
facet normal 4.11190888446556e-017 1.0 5.54622993380386e-019
outer loop
vertex 0.0 0.0 3.175
vertex -0.5936742 0.0 15.875
vertex 16.7109902 -7.04991620636974e-016 3.175
endloop
endfacet
facet normal 4.11190888446556e-017 1.0 5.54622993380386e-019
outer loop
vertex 16.7109902 -7.04991620636974e-016 3.175
vertex -0.5936742 0.0 15.875
vertex 16.7109902 -7.04991620636974e-016 15.875
endloop
endfacet
facet normal 0.0 -1.0 0.0
outer loop
vertex 45.0076824 22.225 15.875
vertex -0.5936742 22.225 3.175
vertex 45.0076824 22.225 3.175
endloop
endfacet
facet normal 0.0 -1.0 0.0
outer loop
vertex -0.5936742 22.225 3.175
vertex 45.0076824 22.225 15.875
vertex -0.5936742 22.225 15.875
endloop
endfacet
facet normal -0.0 1.0 -0.0
outer loop
vertex 27.6347682 0.0 15.875
vertex 44.45 0.0 3.175
vertex 27.6347682 0.0 3.175
endloop
endfacet
facet normal -0.0 1.0 -0.0
outer loop
vertex 44.45 0.0 3.175
vertex 27.6347682 0.0 15.875
vertex 45.0076824 0.0 3.175
endloop
endfacet
facet normal -0.0 1.0 -0.0
outer loop
vertex 45.0076824 0.0 3.175
vertex 27.6347682 0.0 15.875
vertex 45.0076824 0.0 15.875
endloop
endfacet
facet normal -1.0 0.0 0.0
outer loop
vertex 27.6347682 0.0 15.875
vertex 27.6347682 -2.38125 3.175
vertex 27.6347682 -2.38125 15.875
endloop
endfacet
facet normal -1.0 0.0 0.0
outer loop
vertex 27.6347682 -2.38125 3.175
vertex 27.6347682 0.0 15.875
vertex 27.6347682 0.0 3.175
endloop
endfacet
facet normal -0.0 1.0 -0.0
outer loop
vertex 0.0 24.60625 0.0
vertex 7.9375 24.60625 1.8919952
vertex 44.45 24.60625 0.0
endloop
endfacet
facet normal -0.0 1.0 -0.0
outer loop
vertex 7.9375 24.60625 1.8919952
vertex 0.0 24.60625 0.0
vertex 0.0 24.60625 15.875
endloop
endfacet
facet normal -0.0 1.0 -0.0
outer loop
vertex 7.9375 24.60625 1.8919952
vertex 0.0 24.60625 15.875
vertex 5.159375 24.60625 15.875
endloop
endfacet
facet normal -0.0 1.0 -0.0
outer loop
vertex 15.875 24.60625 15.875
vertex 28.575 24.60625 1.8919952
vertex 15.875 24.60625 1.8919952
endloop
endfacet
facet normal -0.0 1.0 -0.0
outer loop
vertex 28.575 24.60625 1.8919952
vertex 15.875 24.60625 15.875
vertex 28.575 24.60625 15.875
endloop
endfacet
facet normal -0.0 1.0 -0.0
outer loop
vertex 44.45 24.60625 0.0
vertex 36.5125 24.60625 1.8919952
vertex 44.45 24.60625 15.875
endloop
endfacet
facet normal -0.0 1.0 -0.0
outer loop
vertex 36.5125 24.60625 1.8919952
vertex 44.45 24.60625 0.0
vertex 7.9375 24.60625 1.8919952
endloop
endfacet
facet normal -0.0 1.0 -0.0
outer loop
vertex 36.5125 24.60625 1.8919952
vertex 7.9375 24.60625 1.8919952
vertex 15.875 24.60625 1.8919952
endloop
endfacet
facet normal -0.0 1.0 -0.0
outer loop
vertex 36.5125 24.60625 1.8919952
vertex 15.875 24.60625 1.8919952
vertex 28.575 24.60625 1.8919952
endloop
endfacet
facet normal -0.0 1.0 -0.0
outer loop
vertex 44.45 24.60625 15.875
vertex 36.5125 24.60625 1.8919952
vertex 39.290625 24.60625 15.875
endloop
endfacet
facet normal 0.0 -1.0 0.0
outer loop
vertex 15.875 24.60625 34.925
vertex 5.159375 24.60625 15.875
vertex 15.875 24.60625 15.875
endloop
endfacet
facet normal 0.0 -1.0 0.0
outer loop
vertex 5.159375 24.60625 15.875
vertex 15.875 24.60625 34.925
vertex 7.9375 24.60625 34.925
endloop
endfacet
facet normal 0.0 -1.0 0.0
outer loop
vertex 36.5125 24.60625 34.925
vertex 28.575 24.60625 15.875
vertex 39.290625 24.60625 15.875
endloop
endfacet
facet normal 0.0 -1.0 0.0
outer loop
vertex 28.575 24.60625 15.875
vertex 36.5125 24.60625 34.925
vertex 28.575 24.60625 34.925
endloop
endfacet
facet normal -1.19186859073088e-017 0.916457843144127 -0.400131255639465
outer loop
vertex 7.9375 30.7113178 15.875
vertex 15.875 24.60625 1.8919952
vertex 7.9375 24.60625 1.8919952
endloop
endfacet
facet normal -1.19186859073088e-017 0.916457843144127 -0.400131255639465
outer loop
vertex 15.875 24.60625 1.8919952
vertex 7.9375 30.7113178 15.875
vertex 15.875 30.7113178 15.875
endloop
endfacet
facet normal 1.0 4.61905841987193e-016 2.60761848330194e-033
outer loop
vertex 15.875 30.7113178 15.875
vertex 15.875 24.60625 15.875
vertex 15.875 24.60625 1.8919952
endloop
endfacet
facet normal 1.0 4.61905841987193e-016 2.60761848330194e-033
outer loop
vertex 15.875 24.60625 15.875
vertex 15.875 30.7113178 15.875
vertex 15.875 24.60625 34.925
endloop
endfacet
facet normal -0.895665572487307 0.407574657658397 -0.177949657756414
outer loop
vertex 7.9375 30.7113178 15.875
vertex 7.9375 24.60625 1.8919952
vertex 5.159375 24.60625 15.875
endloop
endfacet
facet normal -0.0 0.916457843144127 -0.400131255639465
outer loop
vertex 28.575 30.7113178 15.875
vertex 36.5125 24.60625 1.8919952
vertex 28.575 24.60625 1.8919952
endloop
endfacet
facet normal -0.0 0.916457843144127 -0.400131255639465
outer loop
vertex 36.5125 24.60625 1.8919952
vertex 28.575 30.7113178 15.875
vertex 36.5125 30.7113178 15.875
endloop
endfacet
facet normal 0.895665572487307 0.407574657658397 -0.177949657756414
outer loop
vertex 36.5125 30.7113178 15.875
vertex 39.290625 24.60625 15.875
vertex 36.5125 24.60625 1.8919952
endloop
endfacet
facet normal -1.0 0.0 0.0
outer loop
vertex 28.575 30.7113178 15.875
vertex 28.575 24.60625 15.875
vertex 28.575 24.60625 34.925
endloop
endfacet
facet normal -1.0 0.0 0.0
outer loop
vertex 28.575 24.60625 15.875
vertex 28.575 30.7113178 15.875
vertex 28.575 24.60625 1.8919952
endloop
endfacet
facet normal 5.21990635596451e-018 0.952292478985342 0.305186884495306
outer loop
vertex 7.9375 24.60625 34.925
vertex 15.875 30.7113178 15.875
vertex 7.9375 30.7113178 15.875
endloop
endfacet
facet normal 5.21990635596451e-018 0.952292478985342 0.305186884495306
outer loop
vertex 15.875 30.7113178 15.875
vertex 7.9375 24.60625 34.925
vertex 15.875 24.60625 34.925
endloop
endfacet
facet normal -0.902278718697828 0.410583984895697 0.131582313143433
outer loop
vertex 7.9375 30.7113178 15.875
vertex 5.159375 24.60625 15.875
vertex 7.9375 24.60625 34.925
endloop
endfacet
facet normal -0.0 0.952292478985342 0.305186884495306
outer loop
vertex 28.575 24.60625 34.925
vertex 36.5125 30.7113178 15.875
vertex 28.575 30.7113178 15.875
endloop
endfacet
facet normal -0.0 0.952292478985342 0.305186884495306
outer loop
vertex 36.5125 30.7113178 15.875
vertex 28.575 24.60625 34.925
vertex 36.5125 24.60625 34.925
endloop
endfacet
facet normal 0.902278718697828 0.410583984895697 0.131582313143433
outer loop
vertex 36.5125 30.7113178 15.875
vertex 36.5125 24.60625 34.925
vertex 39.290625 24.60625 15.875
endloop
endfacet
facet normal -0.0 -0.0 1.0
outer loop
vertex 2.8199664825479e-015 -2.38125 15.875
vertex -0.5936742 0.0 15.875
vertex -1.8515410779765 -0.605813728933339 15.875
endloop
endfacet
facet normal -0.0 -0.0 1.0
outer loop
vertex -0.5936742 0.0 15.875
vertex 2.8199664825479e-015 -2.38125 15.875
vertex 16.7109902 -7.04991620636974e-016 15.875
endloop
endfacet
facet normal -0.0 -0.0 1.0
outer loop
vertex 16.7109902 -7.04991620636974e-016 15.875
vertex 2.8199664825479e-015 -2.38125 15.875
vertex 16.7109902 -2.38125 15.875
endloop
endfacet
facet normal -0.0 -0.0 1.0
outer loop
vertex 44.45 -2.38125 15.875
vertex 27.6347682 0.0 15.875
vertex 27.6347682 -2.38125 15.875
endloop
endfacet
facet normal -0.0 -0.0 1.0
outer loop
vertex 27.6347682 0.0 15.875
vertex 44.45 -2.38125 15.875
vertex 45.0076824 0.0 15.875
endloop
endfacet
facet normal -0.0 -0.0 1.0
outer loop
vertex 45.0076824 0.0 15.875
vertex 44.45 -2.38125 15.875
vertex 46.3015410779765 -0.605813728933339 15.875
endloop
endfacet
facet normal -0.0 -0.0 1.0
outer loop
vertex 45.0076824 0.0 15.875
vertex 46.3015410779765 -0.605813728933339 15.875
vertex 45.0076824 22.225 15.875
endloop
endfacet
facet normal -0.0 -0.0 1.0
outer loop
vertex -6.16211919777501 8.55416477563851 15.875
vertex -6.16211919777501 13.6708352243615 15.875
vertex -6.35 11.1125 15.875
endloop
endfacet
facet normal -0.0 -0.0 1.0
outer loop
vertex -6.16211919777501 13.6708352243615 15.875
vertex -6.16211919777501 8.55416477563851 15.875
vertex -5.60250819532313 6.05072437451283 15.875
endloop
endfacet
facet normal -0.0 -0.0 1.0
outer loop
vertex -6.16211919777501 13.6708352243615 15.875
vertex -5.60250819532313 6.05072437451283 15.875
vertex -5.60250819532313 16.1742756254872 15.875
endloop
endfacet
facet normal -0.0 -0.0 1.0
outer loop
vertex -5.60250819532313 16.1742756254872 15.875
vertex -5.60250819532313 6.05072437451283 15.875
vertex -4.68317470248936 3.6558957282403 15.875
endloop
endfacet
facet normal -0.0 -0.0 1.0
outer loop
vertex -5.60250819532313 16.1742756254872 15.875
vertex -4.68317470248936 3.6558957282403 15.875
vertex -4.68317470248936 18.5691042717597 15.875
endloop
endfacet
facet normal -0.0 -0.0 1.0
outer loop
vertex -4.68317470248936 18.5691042717597 15.875
vertex -4.68317470248936 3.6558957282403 15.875
vertex -3.4238450823802 1.42106525950912 15.875
endloop
endfacet
facet normal -0.0 -0.0 1.0
outer loop
vertex -4.68317470248936 18.5691042717597 15.875
vertex -3.4238450823802 1.42106525950912 15.875
vertex -3.4238450823802 20.8039347404909 15.875
endloop
endfacet
facet normal -0.0 -0.0 1.0
outer loop
vertex -3.4238450823802 20.8039347404909 15.875
vertex -3.4238450823802 1.42106525950912 15.875
vertex -1.8515410779765 -0.605813728933339 15.875
endloop
endfacet
facet normal -0.0 -0.0 1.0
outer loop
vertex -3.4238450823802 20.8039347404909 15.875
vertex -1.8515410779765 -0.605813728933339 15.875
vertex -1.8515410779765 22.8308137289333 15.875
endloop
endfacet
facet normal -0.0 -0.0 1.0
outer loop
vertex -1.8515410779765 22.8308137289333 15.875
vertex -1.8515410779765 -0.605813728933339 15.875
vertex -0.5936742 22.225 15.875
endloop
endfacet
facet normal -0.0 -0.0 1.0
outer loop
vertex -1.8515410779765 22.8308137289333 15.875
vertex -0.5936742 22.225 15.875
vertex 0.0 24.60625 15.875
endloop
endfacet
facet normal -0.0 -0.0 1.0
outer loop
vertex -0.5936742 22.225 15.875
vertex -1.8515410779765 -0.605813728933339 15.875
vertex -0.5936742 0.0 15.875
endloop
endfacet
facet normal -0.0 -0.0 1.0
outer loop
vertex 0.0 24.60625 15.875
vertex -0.5936742 22.225 15.875
vertex 45.0076824 22.225 15.875
endloop
endfacet
facet normal -0.0 -0.0 1.0
outer loop
vertex 0.0 24.60625 15.875
vertex 45.0076824 22.225 15.875
vertex 5.159375 24.60625 15.875
endloop
endfacet
facet normal -0.0 -0.0 1.0
outer loop
vertex 5.159375 24.60625 15.875
vertex 45.0076824 22.225 15.875
vertex 15.875 24.60625 15.875
endloop
endfacet
facet normal -0.0 -0.0 1.0
outer loop
vertex 15.875 24.60625 15.875
vertex 45.0076824 22.225 15.875
vertex 28.575 24.60625 15.875
endloop
endfacet
facet normal -0.0 -0.0 1.0
outer loop
vertex 28.575 24.60625 15.875
vertex 45.0076824 22.225 15.875
vertex 39.290625 24.60625 15.875
endloop
endfacet
facet normal -0.0 -0.0 1.0
outer loop
vertex 39.290625 24.60625 15.875
vertex 45.0076824 22.225 15.875
vertex 44.45 24.60625 15.875
endloop
endfacet
facet normal -0.0 -0.0 1.0
outer loop
vertex 44.45 24.60625 15.875
vertex 45.0076824 22.225 15.875
vertex 46.3015410779765 22.8308137289333 15.875
endloop
endfacet
facet normal -0.0 -0.0 1.0
outer loop
vertex 46.3015410779765 22.8308137289333 15.875
vertex 45.0076824 22.225 15.875
vertex 46.3015410779765 -0.605813728933339 15.875
endloop
endfacet
facet normal -0.0 -0.0 1.0
outer loop
vertex 46.3015410779765 22.8308137289333 15.875
vertex 46.3015410779765 -0.605813728933339 15.875
vertex 47.8738450823802 1.42106525950912 15.875
endloop
endfacet
facet normal -0.0 -0.0 1.0
outer loop
vertex 46.3015410779765 22.8308137289333 15.875
vertex 47.8738450823802 1.42106525950912 15.875
vertex 47.8738450823802 20.8039347404909 15.875
endloop
endfacet
facet normal -0.0 -0.0 1.0
outer loop
vertex 47.8738450823802 20.8039347404909 15.875
vertex 47.8738450823802 1.42106525950912 15.875
vertex 49.1331747024894 3.6558957282403 15.875
endloop
endfacet
facet normal -0.0 -0.0 1.0
outer loop
vertex 47.8738450823802 20.8039347404909 15.875
vertex 49.1331747024894 3.6558957282403 15.875
vertex 49.1331747024894 18.5691042717597 15.875
endloop
endfacet
facet normal -0.0 -0.0 1.0
outer loop
vertex 49.1331747024894 18.5691042717597 15.875
vertex 49.1331747024894 3.6558957282403 15.875
vertex 50.0525081953231 6.05072437451283 15.875
endloop
endfacet
facet normal -0.0 -0.0 1.0
outer loop
vertex 49.1331747024894 18.5691042717597 15.875
vertex 50.0525081953231 6.05072437451283 15.875
vertex 50.0525081953231 16.1742756254872 15.875
endloop
endfacet
facet normal -0.0 -0.0 1.0
outer loop
vertex 50.0525081953231 16.1742756254872 15.875
vertex 50.0525081953231 6.05072437451283 15.875
vertex 50.612119197775 13.6708352243615 15.875
endloop
endfacet
facet normal -0.0 -0.0 1.0
outer loop
vertex 50.612119197775 13.6708352243615 15.875
vertex 50.0525081953231 6.05072437451283 15.875
vertex 50.612119197775 8.55416477563851 15.875
endloop
endfacet
facet normal -0.0 -0.0 1.0
outer loop
vertex 50.612119197775 13.6708352243615 15.875
vertex 50.612119197775 8.55416477563851 15.875
vertex 50.8 11.1125 15.875
endloop
endfacet
facet normal -1.44417151532095e-018 -1.0 -1.10124549894e-017
outer loop
vertex 44.45 -2.38125 0.0
vertex 27.6347682 -2.38125 3.175
vertex 2.8199664825479e-015 -2.38125 0.0
endloop
endfacet
facet normal -1.44417151532095e-018 -1.0 -1.10124549894e-017
outer loop
vertex 27.6347682 -2.38125 3.175
vertex 44.45 -2.38125 0.0
vertex 44.45 -2.38125 15.875
endloop
endfacet
facet normal -1.44417151532095e-018 -1.0 -1.10124549894e-017
outer loop
vertex 27.6347682 -2.38125 3.175
vertex 44.45 -2.38125 15.875
vertex 27.6347682 -2.38125 15.875
endloop
endfacet
facet normal -1.44417151532095e-018 -1.0 -1.10124549894e-017
outer loop
vertex 2.8199664825479e-015 -2.38125 0.0
vertex 16.7109902 -2.38125 3.175
vertex 2.8199664825479e-015 -2.38125 15.875
endloop
endfacet
facet normal -1.44417151532095e-018 -1.0 -1.10124549894e-017
outer loop
vertex 16.7109902 -2.38125 3.175
vertex 2.8199664825479e-015 -2.38125 0.0
vertex 27.6347682 -2.38125 3.175
endloop
endfacet
facet normal -1.44417151532095e-018 -1.0 -1.10124549894e-017
outer loop
vertex 2.8199664825479e-015 -2.38125 15.875
vertex 16.7109902 -2.38125 3.175
vertex 16.7109902 -2.38125 15.875
endloop
endfacet
facet normal -0.0 -0.0 1.0
outer loop
vertex 27.2850101292136 13.3723137875514 3.175
vertex 26.9875 16.9710114021324 3.175
vertex 26.9875 11.1125 3.175
endloop
endfacet
facet normal -0.0 -0.0 1.0
outer loop
vertex 27.6347682 -2.38125 3.175
vertex 16.7109902 -7.04991620636974e-016 3.175
vertex 16.7109902 -2.38125 3.175
endloop
endfacet
facet normal -0.0 -0.0 1.0
outer loop
vertex 16.7109902 -7.04991620636974e-016 3.175
vertex 27.6347682 -2.38125 3.175
vertex 17.4625 4.04029174329141 3.175
endloop
endfacet
facet normal -0.0 -0.0 1.0
outer loop
vertex 16.7109902 -7.04991620636974e-016 3.175
vertex 17.4625 4.04029174329141 3.175
vertex 17.1649898707864 8.85268621244861 3.175
endloop
endfacet
facet normal -0.0 -0.0 1.0
outer loop
vertex 17.4625 4.04029174329141 3.175
vertex 27.6347682 -2.38125 3.175
vertex 26.9875 4.04029174329141 3.175
endloop
endfacet
facet normal -0.0 -0.0 1.0
outer loop
vertex 26.9875 4.04029174329141 3.175
vertex 27.6347682 -2.38125 3.175
vertex 26.9875 11.1125 3.175
endloop
endfacet
facet normal -0.0 -0.0 1.0
outer loop
vertex 26.9875 11.1125 3.175
vertex 27.6347682 -2.38125 3.175
vertex 27.2850101292136 8.85268621244862 3.175
endloop
endfacet
facet normal -0.0 -0.0 1.0
outer loop
vertex 27.2850101292136 8.85268621244862 3.175
vertex 27.6347682 -2.38125 3.175
vertex 27.6347682 0.0 3.175
endloop
endfacet
facet normal -0.0 -0.0 1.0
outer loop
vertex 27.2850101292136 8.85268621244862 3.175
vertex 27.6347682 0.0 3.175
vertex 28.1572656932071 6.746875 3.175
endloop
endfacet
facet normal -0.0 -0.0 1.0
outer loop
vertex 28.1572656932071 6.746875 3.175
vertex 27.6347682 0.0 3.175
vertex 29.544823916765 4.93857391676496 3.175
endloop
endfacet
facet normal -0.0 -0.0 1.0
outer loop
vertex 29.544823916765 4.93857391676496 3.175
vertex 27.6347682 0.0 3.175
vertex 31.353125 3.55101569320712 3.175
endloop
endfacet
facet normal -0.0 -0.0 1.0
outer loop
vertex 31.353125 3.55101569320712 3.175
vertex 27.6347682 0.0 3.175
vertex 33.4589362124486 2.67876012921357 3.175
endloop
endfacet
facet normal -0.0 -0.0 1.0
outer loop
vertex 33.4589362124486 2.67876012921357 3.175
vertex 27.6347682 0.0 3.175
vertex 44.45 0.0 3.175
endloop
endfacet
facet normal -0.0 -0.0 1.0
outer loop
vertex 33.4589362124486 2.67876012921357 3.175
vertex 44.45 0.0 3.175
vertex 35.71875 2.38125 3.175
endloop
endfacet
facet normal -0.0 -0.0 1.0
outer loop
vertex 35.71875 2.38125 3.175
vertex 44.45 0.0 3.175
vertex 37.9785637875514 2.67876012921357 3.175
endloop
endfacet
facet normal -0.0 -0.0 1.0
outer loop
vertex 37.9785637875514 2.67876012921357 3.175
vertex 44.45 0.0 3.175
vertex 40.084375 3.55101569320712 3.175
endloop
endfacet
facet normal -0.0 -0.0 1.0
outer loop
vertex 40.084375 3.55101569320712 3.175
vertex 44.45 0.0 3.175
vertex 41.892676083235 4.93857391676496 3.175
endloop
endfacet
facet normal -0.0 -0.0 1.0
outer loop
vertex 41.892676083235 4.93857391676496 3.175
vertex 44.45 0.0 3.175
vertex 43.2802343067929 6.746875 3.175
endloop
endfacet
facet normal -0.0 -0.0 1.0
outer loop
vertex 43.2802343067929 6.746875 3.175
vertex 44.45 0.0 3.175
vertex 44.1524898707864 8.85268621244861 3.175
endloop
endfacet
facet normal -0.0 -0.0 1.0
outer loop
vertex 44.1524898707864 8.85268621244861 3.175
vertex 44.45 0.0 3.175
vertex 44.45 11.1125 3.175
endloop
endfacet
facet normal -0.0 -0.0 1.0
outer loop
vertex 44.45 11.1125 3.175
vertex 44.45 0.0 3.175
vertex 45.0076824 0.0 3.175
endloop
endfacet
facet normal -0.0 -0.0 1.0
outer loop
vertex 0.0 0.0 3.175
vertex -0.5936742 22.225 3.175
vertex -0.5936742 0.0 3.175
endloop
endfacet
facet normal -0.0 -0.0 1.0
outer loop
vertex -0.5936742 22.225 3.175
vertex 0.0 0.0 3.175
vertex 0.0 11.1125 3.175
endloop
endfacet
facet normal -0.0 -0.0 1.0
outer loop
vertex -0.5936742 22.225 3.175
vertex 0.0 11.1125 3.175
vertex 0.297510129213573 13.3723137875514 3.175
endloop
endfacet
facet normal -0.0 -0.0 1.0
outer loop
vertex -0.5936742 22.225 3.175
vertex 0.297510129213573 13.3723137875514 3.175
vertex 1.16976569320712 15.478125 3.175
endloop
endfacet
facet normal -0.0 -0.0 1.0
outer loop
vertex -0.5936742 22.225 3.175
vertex 1.16976569320712 15.478125 3.175
vertex 2.55732391676496 17.286426083235 3.175
endloop
endfacet
facet normal -0.0 -0.0 1.0
outer loop
vertex -0.5936742 22.225 3.175
vertex 2.55732391676496 17.286426083235 3.175
vertex 4.365625 18.6739843067929 3.175
endloop
endfacet
facet normal -0.0 -0.0 1.0
outer loop
vertex -0.5936742 22.225 3.175
vertex 4.365625 18.6739843067929 3.175
vertex 6.47143621244862 19.5462398707864 3.175
endloop
endfacet
facet normal -0.0 -0.0 1.0
outer loop
vertex -0.5936742 22.225 3.175
vertex 6.47143621244862 19.5462398707864 3.175
vertex 8.73125 19.84375 3.175
endloop
endfacet
facet normal -0.0 -0.0 1.0
outer loop
vertex -0.5936742 22.225 3.175
vertex 8.73125 19.84375 3.175
vertex 45.0076824 22.225 3.175
endloop
endfacet
facet normal -0.0 -0.0 1.0
outer loop
vertex 45.0076824 22.225 3.175
vertex 8.73125 19.84375 3.175
vertex 10.9910637875514 19.5462398707864 3.175
endloop
endfacet
facet normal -0.0 -0.0 1.0
outer loop
vertex 45.0076824 22.225 3.175
vertex 10.9910637875514 19.5462398707864 3.175
vertex 13.096875 18.6739843067929 3.175
endloop
endfacet
facet normal -0.0 -0.0 1.0
outer loop
vertex 45.0076824 22.225 3.175
vertex 13.096875 18.6739843067929 3.175
vertex 14.905176083235 17.286426083235 3.175
endloop
endfacet
facet normal -0.0 -0.0 1.0
outer loop
vertex 45.0076824 22.225 3.175
vertex 14.905176083235 17.286426083235 3.175
vertex 17.4625 16.9710114021324 3.175
endloop
endfacet
facet normal -0.0 -0.0 1.0
outer loop
vertex 17.4625 16.9710114021324 3.175
vertex 14.905176083235 17.286426083235 3.175
vertex 16.2927343067929 15.478125 3.175
endloop
endfacet
facet normal -0.0 -0.0 1.0
outer loop
vertex 17.4625 16.9710114021324 3.175
vertex 16.2927343067929 15.478125 3.175
vertex 17.1649898707864 13.3723137875514 3.175
endloop
endfacet
facet normal -0.0 -0.0 1.0
outer loop
vertex 17.4625 16.9710114021324 3.175
vertex 17.1649898707864 13.3723137875514 3.175
vertex 17.4625 11.1125 3.175
endloop
endfacet
facet normal -0.0 -0.0 1.0
outer loop
vertex 45.0076824 22.225 3.175
vertex 17.4625 16.9710114021324 3.175
vertex 33.4589362124486 19.5462398707864 3.175
endloop
endfacet
facet normal -0.0 -0.0 1.0
outer loop
vertex 33.4589362124486 19.5462398707864 3.175
vertex 17.4625 16.9710114021324 3.175
vertex 26.9875 16.9710114021324 3.175
endloop
endfacet
facet normal -0.0 -0.0 1.0
outer loop
vertex 33.4589362124486 19.5462398707864 3.175
vertex 26.9875 16.9710114021324 3.175
vertex 31.353125 18.6739843067929 3.175
endloop
endfacet
facet normal -0.0 -0.0 1.0
outer loop
vertex 31.353125 18.6739843067929 3.175
vertex 26.9875 16.9710114021324 3.175
vertex 29.544823916765 17.286426083235 3.175
endloop
endfacet
facet normal -0.0 -0.0 1.0
outer loop
vertex 29.544823916765 17.286426083235 3.175
vertex 26.9875 16.9710114021324 3.175
vertex 28.1572656932071 15.478125 3.175
endloop
endfacet
facet normal -0.0 -0.0 1.0
outer loop
vertex 28.1572656932071 15.478125 3.175
vertex 26.9875 16.9710114021324 3.175
vertex 27.2850101292136 13.3723137875514 3.175
endloop
endfacet
facet normal -0.0 -0.0 1.0
outer loop
vertex 45.0076824 22.225 3.175
vertex 33.4589362124486 19.5462398707864 3.175
vertex 35.71875 19.84375 3.175
endloop
endfacet
facet normal -0.0 -0.0 1.0
outer loop
vertex 45.0076824 22.225 3.175
vertex 35.71875 19.84375 3.175
vertex 37.9785637875514 19.5462398707864 3.175
endloop
endfacet
facet normal -0.0 -0.0 1.0
outer loop
vertex 45.0076824 22.225 3.175
vertex 37.9785637875514 19.5462398707864 3.175
vertex 40.084375 18.6739843067929 3.175
endloop
endfacet
facet normal -0.0 -0.0 1.0
outer loop
vertex 45.0076824 22.225 3.175
vertex 40.084375 18.6739843067929 3.175
vertex 41.892676083235 17.286426083235 3.175
endloop
endfacet
facet normal -0.0 -0.0 1.0
outer loop
vertex 45.0076824 22.225 3.175
vertex 41.892676083235 17.286426083235 3.175
vertex 43.2802343067929 15.478125 3.175
endloop
endfacet
facet normal -0.0 -0.0 1.0
outer loop
vertex 45.0076824 22.225 3.175
vertex 43.2802343067929 15.478125 3.175
vertex 44.1524898707864 13.3723137875514 3.175
endloop
endfacet
facet normal -0.0 -0.0 1.0
outer loop
vertex 45.0076824 22.225 3.175
vertex 44.1524898707864 13.3723137875514 3.175
vertex 44.45 11.1125 3.175
endloop
endfacet
facet normal -0.0 -0.0 1.0
outer loop
vertex 45.0076824 22.225 3.175
vertex 44.45 11.1125 3.175
vertex 45.0076824 0.0 3.175
endloop
endfacet
facet normal -0.0 -0.0 1.0
outer loop
vertex 17.4625 11.1125 3.175
vertex 17.1649898707864 8.85268621244861 3.175
vertex 17.4625 4.04029174329141 3.175
endloop
endfacet
facet normal -0.0 -0.0 1.0
outer loop
vertex 0.0 0.0 3.175
vertex 0.297510129213572 8.85268621244862 3.175
vertex 0.0 11.1125 3.175
endloop
endfacet
facet normal -0.0 -0.0 1.0
outer loop
vertex 0.297510129213572 8.85268621244862 3.175
vertex 0.0 0.0 3.175
vertex 1.16976569320712 6.746875 3.175
endloop
endfacet
facet normal -0.0 -0.0 1.0
outer loop
vertex 1.16976569320712 6.746875 3.175
vertex 0.0 0.0 3.175
vertex 2.55732391676495 4.93857391676496 3.175
endloop
endfacet
facet normal -0.0 -0.0 1.0
outer loop
vertex 2.55732391676495 4.93857391676496 3.175
vertex 0.0 0.0 3.175
vertex 4.365625 3.55101569320712 3.175
endloop
endfacet
facet normal -0.0 -0.0 1.0
outer loop
vertex 4.365625 3.55101569320712 3.175
vertex 0.0 0.0 3.175
vertex 6.47143621244861 2.67876012921357 3.175
endloop
endfacet
facet normal -0.0 -0.0 1.0
outer loop
vertex 6.47143621244861 2.67876012921357 3.175
vertex 0.0 0.0 3.175
vertex 16.7109902 -7.04991620636974e-016 3.175
endloop
endfacet
facet normal -0.0 -0.0 1.0
outer loop
vertex 6.47143621244861 2.67876012921357 3.175
vertex 16.7109902 -7.04991620636974e-016 3.175
vertex 8.73125 2.38125 3.175
endloop
endfacet
facet normal -0.0 -0.0 1.0
outer loop
vertex 8.73125 2.38125 3.175
vertex 16.7109902 -7.04991620636974e-016 3.175
vertex 10.9910637875514 2.67876012921357 3.175
endloop
endfacet
facet normal -0.0 -0.0 1.0
outer loop
vertex 10.9910637875514 2.67876012921357 3.175
vertex 16.7109902 -7.04991620636974e-016 3.175
vertex 13.096875 3.55101569320712 3.175
endloop
endfacet
facet normal -0.0 -0.0 1.0
outer loop
vertex 13.096875 3.55101569320712 3.175
vertex 16.7109902 -7.04991620636974e-016 3.175
vertex 14.905176083235 4.93857391676496 3.175
endloop
endfacet
facet normal -0.0 -0.0 1.0
outer loop
vertex 14.905176083235 4.93857391676496 3.175
vertex 16.7109902 -7.04991620636974e-016 3.175
vertex 16.2927343067929 6.746875 3.175
endloop
endfacet
facet normal -0.0 -0.0 1.0
outer loop
vertex 16.2927343067929 6.746875 3.175
vertex 16.7109902 -7.04991620636974e-016 3.175
vertex 17.1649898707864 8.85268621244861 3.175
endloop
endfacet
facet normal 0.0 0.0 -1.0
outer loop
vertex 0.0 24.60625 0.0
vertex 0.297510129213573 13.3723137875514 0.0
vertex 0.0 11.1125 0.0
endloop
endfacet
facet normal 0.0 0.0 -1.0
outer loop
vertex 0.297510129213573 13.3723137875514 0.0
vertex 0.0 24.60625 0.0
vertex 1.16976569320712 15.478125 0.0
endloop
endfacet
facet normal 0.0 0.0 -1.0
outer loop
vertex 1.16976569320712 15.478125 0.0
vertex 0.0 24.60625 0.0
vertex 2.55732391676496 17.286426083235 0.0
endloop
endfacet
facet normal 0.0 0.0 -1.0
outer loop
vertex 2.55732391676496 17.286426083235 0.0
vertex 0.0 24.60625 0.0
vertex 4.365625 18.6739843067929 0.0
endloop
endfacet
facet normal 0.0 0.0 -1.0
outer loop
vertex 4.365625 18.6739843067929 0.0
vertex 0.0 24.60625 0.0
vertex 6.47143621244862 19.5462398707864 0.0
endloop
endfacet
facet normal 0.0 0.0 -1.0
outer loop
vertex 6.47143621244862 19.5462398707864 0.0
vertex 0.0 24.60625 0.0
vertex 44.45 24.60625 0.0
endloop
endfacet
facet normal 0.0 0.0 -1.0
outer loop
vertex 6.47143621244862 19.5462398707864 0.0
vertex 44.45 24.60625 0.0
vertex 8.73125 19.84375 0.0
endloop
endfacet
facet normal 0.0 0.0 -1.0
outer loop
vertex 8.73125 19.84375 0.0
vertex 44.45 24.60625 0.0
vertex 10.9910637875514 19.5462398707864 0.0
endloop
endfacet
facet normal 0.0 0.0 -1.0
outer loop
vertex 10.9910637875514 19.5462398707864 0.0
vertex 44.45 24.60625 0.0
vertex 13.096875 18.6739843067929 0.0
endloop
endfacet
facet normal 0.0 0.0 -1.0
outer loop
vertex 13.096875 18.6739843067929 0.0
vertex 44.45 24.60625 0.0
vertex 14.905176083235 17.286426083235 0.0
endloop
endfacet
facet normal 0.0 0.0 -1.0
outer loop
vertex 14.905176083235 17.286426083235 0.0
vertex 44.45 24.60625 0.0
vertex 16.2927343067929 15.478125 0.0
endloop
endfacet
facet normal 0.0 0.0 -1.0
outer loop
vertex 16.2927343067929 15.478125 0.0
vertex 44.45 24.60625 0.0
vertex 17.1649898707864 13.3723137875514 0.0
endloop
endfacet
facet normal 0.0 0.0 -1.0
outer loop
vertex 17.1649898707864 13.3723137875514 0.0
vertex 44.45 24.60625 0.0
vertex 31.353125 18.6739843067929 0.0
endloop
endfacet
facet normal 0.0 0.0 -1.0
outer loop
vertex 17.1649898707864 13.3723137875514 0.0
vertex 31.353125 18.6739843067929 0.0
vertex 17.4625 11.1125 0.0
endloop
endfacet
facet normal 0.0 0.0 -1.0
outer loop
vertex 17.4625 11.1125 0.0
vertex 31.353125 18.6739843067929 0.0
vertex 29.544823916765 17.286426083235 0.0
endloop
endfacet
facet normal 0.0 0.0 -1.0
outer loop
vertex 17.4625 11.1125 0.0
vertex 29.544823916765 17.286426083235 0.0
vertex 28.1572656932071 15.478125 0.0
endloop
endfacet
facet normal 0.0 0.0 -1.0
outer loop
vertex 17.4625 11.1125 0.0
vertex 28.1572656932071 15.478125 0.0
vertex 27.2850101292136 13.3723137875514 0.0
endloop
endfacet
facet normal 0.0 0.0 -1.0
outer loop
vertex 17.4625 11.1125 0.0
vertex 27.2850101292136 13.3723137875514 0.0
vertex 26.9875 11.1125 0.0
endloop
endfacet
facet normal 0.0 0.0 -1.0
outer loop
vertex 31.353125 18.6739843067929 0.0
vertex 44.45 24.60625 0.0
vertex 33.4589362124486 19.5462398707864 0.0
endloop
endfacet
facet normal 0.0 0.0 -1.0
outer loop
vertex 33.4589362124486 19.5462398707864 0.0
vertex 44.45 24.60625 0.0
vertex 35.71875 19.84375 0.0
endloop
endfacet
facet normal 0.0 0.0 -1.0
outer loop
vertex 35.71875 19.84375 0.0
vertex 44.45 24.60625 0.0
vertex 37.9785637875514 19.5462398707864 0.0
endloop
endfacet
facet normal 0.0 0.0 -1.0
outer loop
vertex 37.9785637875514 19.5462398707864 0.0
vertex 44.45 24.60625 0.0
vertex 40.084375 18.6739843067929 0.0
endloop
endfacet
facet normal 0.0 0.0 -1.0
outer loop
vertex 40.084375 18.6739843067929 0.0
vertex 44.45 24.60625 0.0
vertex 41.892676083235 17.286426083235 0.0
endloop
endfacet
facet normal 0.0 0.0 -1.0
outer loop
vertex 41.892676083235 17.286426083235 0.0
vertex 44.45 24.60625 0.0
vertex 43.2802343067929 15.478125 0.0
endloop
endfacet
facet normal 0.0 0.0 -1.0
outer loop
vertex 43.2802343067929 15.478125 0.0
vertex 44.45 24.60625 0.0
vertex 44.1524898707864 13.3723137875514 0.0
endloop
endfacet
facet normal 0.0 0.0 -1.0
outer loop
vertex 44.1524898707864 13.3723137875514 0.0
vertex 44.45 24.60625 0.0
vertex 44.45 11.1125 0.0
endloop
endfacet
facet normal 0.0 0.0 -1.0
outer loop
vertex 44.45 11.1125 0.0
vertex 44.45 24.60625 0.0
vertex 46.3015410779765 22.8308137289333 0.0
endloop
endfacet
facet normal 0.0 0.0 -1.0
outer loop
vertex 44.45 11.1125 0.0
vertex 46.3015410779765 22.8308137289333 0.0
vertex 44.45 -2.38125 0.0
endloop
endfacet
facet normal 0.0 0.0 -1.0
outer loop
vertex 44.45 -2.38125 0.0
vertex 46.3015410779765 22.8308137289333 0.0
vertex 46.3015410779765 -0.605813728933339 0.0
endloop
endfacet
facet normal 0.0 0.0 -1.0
outer loop
vertex 46.3015410779765 -0.605813728933339 0.0
vertex 46.3015410779765 22.8308137289333 0.0
vertex 47.8738450823802 20.8039347404909 0.0
endloop
endfacet
facet normal 0.0 0.0 -1.0
outer loop
vertex 46.3015410779765 -0.605813728933339 0.0
vertex 47.8738450823802 20.8039347404909 0.0
vertex 47.8738450823802 1.42106525950912 0.0
endloop
endfacet
facet normal 0.0 0.0 -1.0
outer loop
vertex 47.8738450823802 1.42106525950912 0.0
vertex 47.8738450823802 20.8039347404909 0.0
vertex 49.1331747024894 18.5691042717597 0.0
endloop
endfacet
facet normal 0.0 0.0 -1.0
outer loop
vertex 47.8738450823802 1.42106525950912 0.0
vertex 49.1331747024894 18.5691042717597 0.0
vertex 49.1331747024894 3.6558957282403 0.0
endloop
endfacet
facet normal 0.0 0.0 -1.0
outer loop
vertex 49.1331747024894 3.6558957282403 0.0
vertex 49.1331747024894 18.5691042717597 0.0
vertex 50.0525081953231 16.1742756254872 0.0
endloop
endfacet
facet normal 0.0 0.0 -1.0
outer loop
vertex 49.1331747024894 3.6558957282403 0.0
vertex 50.0525081953231 16.1742756254872 0.0
vertex 50.0525081953231 6.05072437451283 0.0
endloop
endfacet
facet normal 0.0 0.0 -1.0
outer loop
vertex 50.0525081953231 6.05072437451283 0.0
vertex 50.0525081953231 16.1742756254872 0.0
vertex 50.612119197775 13.6708352243615 0.0
endloop
endfacet
facet normal 0.0 0.0 -1.0
outer loop
vertex 50.0525081953231 6.05072437451283 0.0
vertex 50.612119197775 13.6708352243615 0.0
vertex 50.612119197775 8.55416477563851 0.0
endloop
endfacet
facet normal 0.0 0.0 -1.0
outer loop
vertex 50.612119197775 8.55416477563851 0.0
vertex 50.612119197775 13.6708352243615 0.0
vertex 50.8 11.1125 0.0
endloop
endfacet
facet normal 0.0 0.0 -1.0
outer loop
vertex -6.16211919777501 13.6708352243615 0.0
vertex -6.16211919777501 8.55416477563851 0.0
vertex -6.35 11.1125 0.0
endloop
endfacet
facet normal 0.0 0.0 -1.0
outer loop
vertex -6.16211919777501 8.55416477563851 0.0
vertex -6.16211919777501 13.6708352243615 0.0
vertex -5.60250819532313 16.1742756254872 0.0
endloop
endfacet
facet normal 0.0 0.0 -1.0
outer loop
vertex -6.16211919777501 8.55416477563851 0.0
vertex -5.60250819532313 16.1742756254872 0.0
vertex -5.60250819532313 6.05072437451283 0.0
endloop
endfacet
facet normal 0.0 0.0 -1.0
outer loop
vertex -5.60250819532313 6.05072437451283 0.0
vertex -5.60250819532313 16.1742756254872 0.0
vertex -4.68317470248936 3.6558957282403 0.0
endloop
endfacet
facet normal 0.0 0.0 -1.0
outer loop
vertex -4.68317470248936 3.6558957282403 0.0
vertex -5.60250819532313 16.1742756254872 0.0
vertex -4.68317470248936 18.5691042717597 0.0
endloop
endfacet
facet normal 0.0 0.0 -1.0
outer loop
vertex -4.68317470248936 3.6558957282403 0.0
vertex -4.68317470248936 18.5691042717597 0.0
vertex -3.4238450823802 20.8039347404909 0.0
endloop
endfacet
facet normal 0.0 0.0 -1.0
outer loop
vertex -4.68317470248936 3.6558957282403 0.0
vertex -3.4238450823802 20.8039347404909 0.0
vertex -3.4238450823802 1.42106525950912 0.0
endloop
endfacet
facet normal 0.0 0.0 -1.0
outer loop
vertex -3.4238450823802 1.42106525950912 0.0
vertex -3.4238450823802 20.8039347404909 0.0
vertex -1.8515410779765 22.8308137289333 0.0
endloop
endfacet
facet normal 0.0 0.0 -1.0
outer loop
vertex -3.4238450823802 1.42106525950912 0.0
vertex -1.8515410779765 22.8308137289333 0.0
vertex -1.8515410779765 -0.605813728933339 0.0
endloop
endfacet
facet normal 0.0 0.0 -1.0
outer loop
vertex -1.8515410779765 -0.605813728933339 0.0
vertex -1.8515410779765 22.8308137289333 0.0
vertex 0.0 24.60625 0.0
endloop
endfacet
facet normal 0.0 0.0 -1.0
outer loop
vertex -1.8515410779765 -0.605813728933339 0.0
vertex 0.0 24.60625 0.0
vertex 0.0 11.1125 0.0
endloop
endfacet
facet normal 0.0 0.0 -1.0
outer loop
vertex -1.8515410779765 -0.605813728933339 0.0
vertex 0.0 11.1125 0.0
vertex 2.8199664825479e-015 -2.38125 0.0
endloop
endfacet
facet normal 0.0 0.0 -1.0
outer loop
vertex 2.8199664825479e-015 -2.38125 0.0
vertex 0.0 11.1125 0.0
vertex 0.297510129213572 8.85268621244862 0.0
endloop
endfacet
facet normal 0.0 0.0 -1.0
outer loop
vertex 2.8199664825479e-015 -2.38125 0.0
vertex 0.297510129213572 8.85268621244862 0.0
vertex 1.16976569320712 6.746875 0.0
endloop
endfacet
facet normal 0.0 0.0 -1.0
outer loop
vertex 2.8199664825479e-015 -2.38125 0.0
vertex 1.16976569320712 6.746875 0.0
vertex 2.55732391676495 4.93857391676496 0.0
endloop
endfacet
facet normal 0.0 0.0 -1.0
outer loop
vertex 2.8199664825479e-015 -2.38125 0.0
vertex 2.55732391676495 4.93857391676496 0.0
vertex 4.365625 3.55101569320712 0.0
endloop
endfacet
facet normal 0.0 0.0 -1.0
outer loop
vertex 2.8199664825479e-015 -2.38125 0.0
vertex 4.365625 3.55101569320712 0.0
vertex 6.47143621244861 2.67876012921357 0.0
endloop
endfacet
facet normal 0.0 0.0 -1.0
outer loop
vertex 2.8199664825479e-015 -2.38125 0.0
vertex 6.47143621244861 2.67876012921357 0.0
vertex 44.45 -2.38125 0.0
endloop
endfacet
facet normal 0.0 0.0 -1.0
outer loop
vertex 44.45 -2.38125 0.0
vertex 6.47143621244861 2.67876012921357 0.0
vertex 8.73125 2.38125 0.0
endloop
endfacet
facet normal 0.0 0.0 -1.0
outer loop
vertex 44.45 -2.38125 0.0
vertex 8.73125 2.38125 0.0
vertex 10.9910637875514 2.67876012921357 0.0
endloop
endfacet
facet normal 0.0 0.0 -1.0
outer loop
vertex 44.45 -2.38125 0.0
vertex 10.9910637875514 2.67876012921357 0.0
vertex 13.096875 3.55101569320712 0.0
endloop
endfacet
facet normal 0.0 0.0 -1.0
outer loop
vertex 44.45 -2.38125 0.0
vertex 13.096875 3.55101569320712 0.0
vertex 14.905176083235 4.93857391676496 0.0
endloop
endfacet
facet normal 0.0 0.0 -1.0
outer loop
vertex 44.45 -2.38125 0.0
vertex 14.905176083235 4.93857391676496 0.0
vertex 16.2927343067929 6.746875 0.0
endloop
endfacet
facet normal 0.0 0.0 -1.0
outer loop
vertex 44.45 -2.38125 0.0
vertex 16.2927343067929 6.746875 0.0
vertex 17.1649898707864 8.85268621244861 0.0
endloop
endfacet
facet normal 0.0 0.0 -1.0
outer loop
vertex 44.45 -2.38125 0.0
vertex 17.1649898707864 8.85268621244861 0.0
vertex 31.353125 3.55101569320712 0.0
endloop
endfacet
facet normal 0.0 0.0 -1.0
outer loop
vertex 31.353125 3.55101569320712 0.0
vertex 17.1649898707864 8.85268621244861 0.0
vertex 17.4625 11.1125 0.0
endloop
endfacet
facet normal 0.0 0.0 -1.0
outer loop
vertex 31.353125 3.55101569320712 0.0
vertex 17.4625 11.1125 0.0
vertex 29.544823916765 4.93857391676496 0.0
endloop
endfacet
facet normal 0.0 0.0 -1.0
outer loop
vertex 29.544823916765 4.93857391676496 0.0
vertex 17.4625 11.1125 0.0
vertex 28.1572656932071 6.746875 0.0
endloop
endfacet
facet normal 0.0 0.0 -1.0
outer loop
vertex 28.1572656932071 6.746875 0.0
vertex 17.4625 11.1125 0.0
vertex 27.2850101292136 8.85268621244862 0.0
endloop
endfacet
facet normal 0.0 0.0 -1.0
outer loop
vertex 27.2850101292136 8.85268621244862 0.0
vertex 17.4625 11.1125 0.0
vertex 26.9875 11.1125 0.0
endloop
endfacet
facet normal 0.0 0.0 -1.0
outer loop
vertex 44.45 -2.38125 0.0
vertex 31.353125 3.55101569320712 0.0
vertex 33.4589362124486 2.67876012921357 0.0
endloop
endfacet
facet normal 0.0 0.0 -1.0
outer loop
vertex 44.45 -2.38125 0.0
vertex 33.4589362124486 2.67876012921357 0.0
vertex 35.71875 2.38125 0.0
endloop
endfacet
facet normal 0.0 0.0 -1.0
outer loop
vertex 44.45 -2.38125 0.0
vertex 35.71875 2.38125 0.0
vertex 37.9785637875514 2.67876012921357 0.0
endloop
endfacet
facet normal 0.0 0.0 -1.0
outer loop
vertex 44.45 -2.38125 0.0
vertex 37.9785637875514 2.67876012921357 0.0
vertex 40.084375 3.55101569320712 0.0
endloop
endfacet
facet normal 0.0 0.0 -1.0
outer loop
vertex 44.45 -2.38125 0.0
vertex 40.084375 3.55101569320712 0.0
vertex 41.892676083235 4.93857391676496 0.0
endloop
endfacet
facet normal 0.0 0.0 -1.0
outer loop
vertex 44.45 -2.38125 0.0
vertex 41.892676083235 4.93857391676496 0.0
vertex 43.2802343067929 6.746875 0.0
endloop
endfacet
facet normal 0.0 0.0 -1.0
outer loop
vertex 44.45 -2.38125 0.0
vertex 43.2802343067929 6.746875 0.0
vertex 44.1524898707864 8.85268621244861 0.0
endloop
endfacet
facet normal 0.0 0.0 -1.0
outer loop
vertex 44.45 -2.38125 0.0
vertex 44.1524898707864 8.85268621244861 0.0
vertex 44.45 11.1125 0.0
endloop
endfacet
facet normal -1.0 0.0 0.0
outer loop
vertex 45.0076824 22.225 15.875
vertex 45.0076824 0.0 3.175
vertex 45.0076824 0.0 15.875
endloop
endfacet
facet normal -1.0 0.0 0.0
outer loop
vertex 45.0076824 0.0 3.175
vertex 45.0076824 22.225 15.875
vertex 45.0076824 22.225 3.175
endloop
endfacet
facet normal 1.0 0.0 0.0
outer loop
vertex -0.5936742 22.225 3.175
vertex -0.5936742 0.0 15.875
vertex -0.5936742 0.0 3.175
endloop
endfacet
facet normal 1.0 0.0 0.0
outer loop
vertex -0.5936742 0.0 15.875
vertex -0.5936742 22.225 3.175
vertex -0.5936742 22.225 15.875
endloop
endfacet
endsolid sonicHouse2
