solid hexHead
facet normal 0.374601069147172 -0.404204706736107 0.834441486292582
outer loop
vertex 62.1652801029346 52.1888902725596 0.0340931607744791
vertex 50.7697479029346 52.1888902725596 5.14982459999999
vertex 42.1675045029346 44.2166684725596 5.14982459999999
endloop
endfacet
facet normal 0.0 1.0 0.0
outer loop
vertex 50.7697479029346 52.1888902725596 5.14982459999999
vertex 62.1652801029346 52.1888902725596 0.0340931607744791
vertex 50.7697479029346 52.1888902725596 0.0340931607744791
endloop
endfacet
facet normal 0.0 -1.0 0.0
outer loop
vertex 50.762404751606 71.6041144373598 5.14982459999999
vertex 50.762404751606 71.6041144373598 0.0340931607744791
vertex 62.1652801029346 71.6041144373598 0.0340931607744791
endloop
endfacet
facet normal 0.368803804623282 0.929507263928256 -1.92238966591524e-016
outer loop
vertex 42.160161351606 79.5416144373598 5.14982459999999
vertex 62.1652801029346 71.6041144373598 0.0340931607744791
vertex 42.160161351606 79.5416144373598 0.0340931607744791
endloop
endfacet
facet normal 0.37031371837247 -0.928906749886744 1.92255883770382e-016
outer loop
vertex 42.1675045029346 44.2166684725596 5.14982459999999
vertex 42.1675045029346 44.2166684725596 0.0340931607744791
vertex 62.1652801029346 52.1888902725596 0.0340931607744791
endloop
endfacet
facet normal 0.734932552675479 -0.678140208967072 0.0
outer loop
vertex 50.762404751606 71.6041144373598 0.0340931607744791
vertex 47.6451018996496 68.2257462 5.14982459999999
vertex 47.6451018996496 68.2257462 0.0340931607744791
endloop
endfacet
facet normal 0.734932552675479 -0.678140208967072 0.0
outer loop
vertex 47.6451018996496 68.2257462 5.14982459999999
vertex 50.762404751606 71.6041144373598 0.0340931607744791
vertex 50.762404751606 71.6041144373598 5.14982459999999
endloop
endfacet
facet normal -0.734932552675479 0.678140208967072 0.0
outer loop
vertex 42.160161351606 79.5416144373598 5.14982459999999
vertex 39.0428584996496 76.1632462 0.0340931607744791
vertex 39.0428584996496 76.1632462 5.14982459999999
endloop
endfacet
facet normal -0.734932552675479 0.678140208967072 0.0
outer loop
vertex 39.0428584996496 76.1632462 0.0340931607744791
vertex 42.160161351606 79.5416144373598 5.14982459999999
vertex 42.160161351606 79.5416144373598 0.0340931607744791
endloop
endfacet
facet normal -0.733455340471719 -0.679737643163533 -0.0
outer loop
vertex 39.0428584996496 47.5882462 5.14982459999999
vertex 42.1675045029346 44.2166684725596 0.0340931607744791
vertex 42.1675045029346 44.2166684725596 5.14982459999999
endloop
endfacet
facet normal -0.733455340471719 -0.679737643163533 -0.0
outer loop
vertex 42.1675045029346 44.2166684725596 0.0340931607744791
vertex 39.0428584996496 47.5882462 5.14982459999999
vertex 39.0428584996496 47.5882462 0.0340931607744791
endloop
endfacet
facet normal 0.374165387736059 0.405500691295869 0.834008064696557
outer loop
vertex 62.1652801029346 71.6041144373598 0.0340931607744791
vertex 42.160161351606 79.5416144373598 5.14982459999999
vertex 50.762404751606 71.6041144373598 5.14982459999999
endloop
endfacet
facet normal 0.733455340471719 0.679737643163533 0.0
outer loop
vertex 47.6451018996496 55.560468 0.0340931607744791
vertex 50.7697479029346 52.1888902725596 5.14982459999999
vertex 50.7697479029346 52.1888902725596 0.0340931607744791
endloop
endfacet
facet normal 0.733455340471719 0.679737643163533 0.0
outer loop
vertex 50.7697479029346 52.1888902725596 5.14982459999999
vertex 47.6451018996496 55.560468 0.0340931607744791
vertex 47.6451018996496 55.560468 5.14982459999999
endloop
endfacet
facet normal 0.0 0.0 -1.0
outer loop
vertex 62.1652801029346 71.6041144373598 0.0340931607744791
vertex 50.762404751606 71.6041144373598 0.0340931607744791
vertex 42.160161351606 79.5416144373598 0.0340931607744791
endloop
endfacet
facet normal 0.0 0.0 -1.0
outer loop
vertex 62.1652801029346 52.1888902725596 0.0340931607744791
vertex 42.1675045029346 44.2166684725596 0.0340931607744791
vertex 50.7697479029346 52.1888902725596 0.0340931607744791
endloop
endfacet
facet normal 1.0 0.0 0.0
outer loop
vertex 12.7540587778851 74.5757462 0.0340931607744791
vertex 12.7540587778851 71.4007462 5.1498246
vertex 12.7540587778851 71.4007462 0.0340931607744791
endloop
endfacet
facet normal 1.0 0.0 0.0
outer loop
vertex 12.7540587778851 71.4007462 5.1498246
vertex 12.7540587778851 74.5757462 0.0340931607744791
vertex 12.7540587778851 74.5757462 5.14982459999999
endloop
endfacet
facet normal 0.0 -1.0 0.0
outer loop
vertex 34.9790587778851 52.3507462 5.1498246
vertex 12.7540587778851 52.3507462 0.0340931607744791
vertex 34.9790587778851 52.3507462 0.0340931607744791
endloop
endfacet
facet normal 0.0 -1.0 0.0
outer loop
vertex 12.7540587778851 52.3507462 0.0340931607744791
vertex 34.9790587778851 52.3507462 5.1498246
vertex 12.7540587778851 52.3507462 5.14982459999999
endloop
endfacet
facet normal -1.0 0.0 0.0
outer loop
vertex 34.9790587778851 52.3507462 5.1498246
vertex 34.9790587778851 49.1757462 0.0340931607744791
vertex 34.9790587778851 49.1757462 5.1498246
endloop
endfacet
facet normal -1.0 0.0 0.0
outer loop
vertex 34.9790587778851 49.1757462 0.0340931607744791
vertex 34.9790587778851 52.3507462 5.1498246
vertex 34.9790587778851 52.3507462 0.0340931607744791
endloop
endfacet
facet normal 0.0 -1.0 0.0
outer loop
vertex 34.9790587778851 74.5757462 5.1498246
vertex 12.7540587778851 74.5757462 0.0340931607744791
vertex 34.9790587778851 74.5757462 0.0340931607744791
endloop
endfacet
facet normal 0.0 -1.0 0.0
outer loop
vertex 12.7540587778851 74.5757462 0.0340931607744791
vertex 34.9790587778851 74.5757462 5.1498246
vertex 12.7540587778851 74.5757462 5.14982459999999
endloop
endfacet
facet normal 0.0 1.0 0.0
outer loop
vertex 12.7540587778851 71.4007462 5.1498246
vertex 34.9790587778851 71.4007462 0.0340931607744791
vertex 12.7540587778851 71.4007462 0.0340931607744791
endloop
endfacet
facet normal 0.0 1.0 0.0
outer loop
vertex 34.9790587778851 71.4007462 0.0340931607744791
vertex 12.7540587778851 71.4007462 5.1498246
vertex 34.9790587778851 71.4007462 5.1498246
endloop
endfacet
facet normal 0.0 1.0 0.0
outer loop
vertex 12.7540587778851 49.1757462 5.1498246
vertex 34.9790587778851 49.1757462 0.0340931607744791
vertex 12.7540587778851 49.1757462 0.0340931607744791
endloop
endfacet
facet normal 0.0 1.0 0.0
outer loop
vertex 34.9790587778851 49.1757462 0.0340931607744791
vertex 12.7540587778851 49.1757462 5.1498246
vertex 34.9790587778851 49.1757462 5.1498246
endloop
endfacet
facet normal 1.0 0.0 0.0
outer loop
vertex 12.7540587778851 52.3507462 0.0340931607744791
vertex 12.7540587778851 49.1757462 5.1498246
vertex 12.7540587778851 49.1757462 0.0340931607744791
endloop
endfacet
facet normal 1.0 0.0 0.0
outer loop
vertex 12.7540587778851 49.1757462 5.1498246
vertex 12.7540587778851 52.3507462 0.0340931607744791
vertex 12.7540587778851 52.3507462 5.14982459999999
endloop
endfacet
facet normal -1.0 0.0 0.0
outer loop
vertex 34.9790587778851 74.5757462 5.1498246
vertex 34.9790587778851 71.4007462 0.0340931607744791
vertex 34.9790587778851 71.4007462 5.1498246
endloop
endfacet
facet normal -1.0 0.0 0.0
outer loop
vertex 34.9790587778851 71.4007462 0.0340931607744791
vertex 34.9790587778851 74.5757462 5.1498246
vertex 34.9790587778851 74.5757462 0.0340931607744791
endloop
endfacet
facet normal -0.707106781186547 -0.707106781186548 0.0
outer loop
vertex 5.56052272870046 63.3943680227005 5.14982459999999
vertex 5.06734970599999 63.7727929927617 0.0340931607744791
vertex 5.56052272870046 63.3943680227005 0.0340931607744791
endloop
endfacet
facet normal -0.499999999999995 -0.866025403784442 0.0
outer loop
vertex 5.06734970599999 63.7727929927617 0.0340931607744791
vertex 5.56052272870046 63.3943680227005 5.14982459999999
vertex 5.06734970599999 63.7727929927617 5.14982459999999
endloop
endfacet
facet normal -0.258819045102521 -0.965925826289068 0.0
outer loop
vertex 4.49303755715037 64.0106808738508 5.14982459999999
vertex 3.87672470599999 64.09182 0.0340931607744791
vertex 4.49303755715037 64.0106808738508 0.0340931607744791
endloop
endfacet
facet normal -1.51488868225998e-016 -1.0 0.0
outer loop
vertex 3.87672470599999 64.09182 0.0340931607744791
vertex 4.49303755715037 64.0106808738508 5.14982459999999
vertex 3.87672470599999 64.09182 5.14982459999999
endloop
endfacet
facet normal 0.0 0.0 -1.0
outer loop
vertex 0.0540587778850717 55.560468 0.0340931607744791
vertex 1.57661383214915 61.0942571488496 0.0340931607744791
vertex 6.35 47.5882462 0.0340931607744791
endloop
endfacet
facet normal 0.0 0.0 -1.0
outer loop
vertex 1.57661383214915 61.0942571488496 0.0340931607744791
vertex 0.0540587778850717 55.560468 0.0340931607744791
vertex 1.49547470599999 61.71057 0.0340931607744791
endloop
endfacet
facet normal 0.0 0.0 -1.0
outer loop
vertex 6.35 47.5882462 0.0340931607744791
vertex 1.57661383214915 61.0942571488496 0.0340931607744791
vertex 1.8145017132383 60.519945 0.0340931607744791
endloop
endfacet
facet normal 0.0 0.0 -1.0
outer loop
vertex 6.35 47.5882462 0.0340931607744791
vertex 1.8145017132383 60.519945 0.0340931607744791
vertex 2.19292668329953 60.0267719772995 0.0340931607744791
endloop
endfacet
facet normal 0.0 0.0 -1.0
outer loop
vertex 6.35 47.5882462 0.0340931607744791
vertex 2.19292668329953 60.0267719772995 0.0340931607744791
vertex 2.68609970599999 59.6483470072383 0.0340931607744791
endloop
endfacet
facet normal 0.0 0.0 -1.0
outer loop
vertex 6.35 47.5882462 0.0340931607744791
vertex 2.68609970599999 59.6483470072383 0.0340931607744791
vertex 3.26041185484962 59.4104591261492 0.0340931607744791
endloop
endfacet
facet normal 0.0 0.0 -1.0
outer loop
vertex 6.35 47.5882462 0.0340931607744791
vertex 3.26041185484962 59.4104591261492 0.0340931607744791
vertex 3.87672470599999 59.32932 0.0340931607744791
endloop
endfacet
facet normal 0.0 0.0 -1.0
outer loop
vertex 6.35 47.5882462 0.0340931607744791
vertex 3.87672470599999 59.32932 0.0340931607744791
vertex 4.49303755715037 59.4104591261492 0.0340931607744791
endloop
endfacet
facet normal 0.0 0.0 -1.0
outer loop
vertex 6.35 47.5882462 0.0340931607744791
vertex 4.49303755715037 59.4104591261492 0.0340931607744791
vertex 5.06734970599999 59.6483470072383 0.0340931607744791
endloop
endfacet
facet normal 0.0 0.0 -1.0
outer loop
vertex 6.35 47.5882462 0.0340931607744791
vertex 5.06734970599999 59.6483470072383 0.0340931607744791
vertex 5.56052272870046 60.0267719772995 0.0340931607744791
endloop
endfacet
facet normal 0.0 0.0 -1.0
outer loop
vertex 6.35 47.5882462 0.0340931607744791
vertex 5.56052272870046 60.0267719772995 0.0340931607744791
vertex 5.93894769876169 60.519945 0.0340931607744791
endloop
endfacet
facet normal 0.0 0.0 -1.0
outer loop
vertex 6.35 47.5882462 0.0340931607744791
vertex 5.93894769876169 60.519945 0.0340931607744791
vertex 6.17683557985084 61.0942571488496 0.0340931607744791
endloop
endfacet
facet normal 0.0 0.0 -1.0
outer loop
vertex 6.35 47.5882462 0.0340931607744791
vertex 6.17683557985084 61.0942571488496 0.0340931607744791
vertex 6.25797470599999 61.71057 0.0340931607744791
endloop
endfacet
facet normal 0.0 0.0 -1.0
outer loop
vertex 6.35 47.5882462 0.0340931607744791
vertex 6.25797470599999 61.71057 0.0340931607744791
vertex 6.35 76.1632462 0.0340931607744791
endloop
endfacet
facet normal 0.0 0.0 -1.0
outer loop
vertex 6.35 47.5882462 0.0340931607744791
vertex 6.35 76.1632462 0.0340931607744791
vertex 12.7540587778851 74.5757462 0.0340931607744791
endloop
endfacet
facet normal 0.0 0.0 -1.0
outer loop
vertex 12.7540587778851 74.5757462 0.0340931607744791
vertex 6.35 76.1632462 0.0340931607744791
vertex 39.0428584996496 76.1632462 0.0340931607744791
endloop
endfacet
facet normal 0.0 0.0 -1.0
outer loop
vertex 12.7540587778851 74.5757462 0.0340931607744791
vertex 39.0428584996496 76.1632462 0.0340931607744791
vertex 34.9790587778851 74.5757462 0.0340931607744791
endloop
endfacet
facet normal 0.0 0.0 -1.0
outer loop
vertex 34.9790587778851 74.5757462 0.0340931607744791
vertex 39.0428584996496 76.1632462 0.0340931607744791
vertex 34.9790587778851 71.4007462 0.0340931607744791
endloop
endfacet
facet normal 0.0 0.0 -1.0
outer loop
vertex 34.9790587778851 71.4007462 0.0340931607744791
vertex 39.0428584996496 76.1632462 0.0340931607744791
vertex 34.9790587778851 52.3507462 0.0340931607744791
endloop
endfacet
facet normal 0.0 0.0 -1.0
outer loop
vertex 34.9790587778851 52.3507462 0.0340931607744791
vertex 39.0428584996496 76.1632462 0.0340931607744791
vertex 34.9790587778851 49.1757462 0.0340931607744791
endloop
endfacet
facet normal 0.0 0.0 -1.0
outer loop
vertex 42.160161351606 79.5416144373598 0.0340931607744791
vertex 39.0428584996496 68.2257462 0.0340931607744791
vertex 39.0428584996496 76.1632462 0.0340931607744791
endloop
endfacet
facet normal 0.0 0.0 -1.0
outer loop
vertex 39.0428584996496 68.2257462 0.0340931607744791
vertex 42.160161351606 79.5416144373598 0.0340931607744791
vertex 47.6451018996496 68.2257462 0.0340931607744791
endloop
endfacet
facet normal 0.0 0.0 -1.0
outer loop
vertex 47.6451018996496 68.2257462 0.0340931607744791
vertex 42.160161351606 79.5416144373598 0.0340931607744791
vertex 50.762404751606 71.6041144373598 0.0340931607744791
endloop
endfacet
facet normal 0.0 0.0 -1.0
outer loop
vertex 6.35 47.5882462 0.0340931607744791
vertex 12.7540587778851 49.1757462 0.0340931607744791
vertex 39.0428584996496 47.5882462 0.0340931607744791
endloop
endfacet
facet normal 0.0 0.0 -1.0
outer loop
vertex 12.7540587778851 49.1757462 0.0340931607744791
vertex 6.35 47.5882462 0.0340931607744791
vertex 12.7540587778851 74.5757462 0.0340931607744791
endloop
endfacet
facet normal 0.0 0.0 -1.0
outer loop
vertex 12.7540587778851 49.1757462 0.0340931607744791
vertex 12.7540587778851 74.5757462 0.0340931607744791
vertex 12.7540587778851 71.4007462 0.0340931607744791
endloop
endfacet
facet normal 0.0 0.0 -1.0
outer loop
vertex 12.7540587778851 49.1757462 0.0340931607744791
vertex 12.7540587778851 71.4007462 0.0340931607744791
vertex 12.7540587778851 52.3507462 0.0340931607744791
endloop
endfacet
facet normal 0.0 0.0 -1.0
outer loop
vertex 39.0428584996496 47.5882462 0.0340931607744791
vertex 12.7540587778851 49.1757462 0.0340931607744791
vertex 34.9790587778851 49.1757462 0.0340931607744791
endloop
endfacet
facet normal 0.0 0.0 -1.0
outer loop
vertex 39.0428584996496 47.5882462 0.0340931607744791
vertex 34.9790587778851 49.1757462 0.0340931607744791
vertex 39.0428584996496 76.1632462 0.0340931607744791
endloop
endfacet
facet normal 0.0 0.0 -1.0
outer loop
vertex 39.0428584996496 47.5882462 0.0340931607744791
vertex 39.0428584996496 76.1632462 0.0340931607744791
vertex 39.0428584996496 68.2257462 0.0340931607744791
endloop
endfacet
facet normal 0.0 0.0 -1.0
outer loop
vertex 39.0428584996496 47.5882462 0.0340931607744791
vertex 39.0428584996496 68.2257462 0.0340931607744791
vertex 39.0428584996496 55.560468 0.0340931607744791
endloop
endfacet
facet normal 0.0 0.0 -1.0
outer loop
vertex 39.0428584996496 47.5882462 0.0340931607744791
vertex 39.0428584996496 55.560468 0.0340931607744791
vertex 47.6451018996496 55.560468 0.0340931607744791
endloop
endfacet
facet normal 0.0 0.0 -1.0
outer loop
vertex 39.0428584996496 47.5882462 0.0340931607744791
vertex 47.6451018996496 55.560468 0.0340931607744791
vertex 42.1675045029346 44.2166684725596 0.0340931607744791
endloop
endfacet
facet normal 0.0 0.0 -1.0
outer loop
vertex 42.1675045029346 44.2166684725596 0.0340931607744791
vertex 47.6451018996496 55.560468 0.0340931607744791
vertex 50.7697479029346 52.1888902725596 0.0340931607744791
endloop
endfacet
facet normal 0.0 0.0 -1.0
outer loop
vertex 34.9790587778851 71.4007462 0.0340931607744791
vertex 12.7540587778851 52.3507462 0.0340931607744791
vertex 12.7540587778851 71.4007462 0.0340931607744791
endloop
endfacet
facet normal 0.0 0.0 -1.0
outer loop
vertex 12.7540587778851 52.3507462 0.0340931607744791
vertex 34.9790587778851 71.4007462 0.0340931607744791
vertex 34.9790587778851 52.3507462 0.0340931607744791
endloop
endfacet
facet normal 0.0 0.0 -1.0
outer loop
vertex 0.0540587778850717 68.2257462 0.0340931607744791
vertex 1.57661383214915 62.3268828511504 0.0340931607744791
vertex 0.0540587778850717 55.560468 0.0340931607744791
endloop
endfacet
facet normal 0.0 0.0 -1.0
outer loop
vertex 1.57661383214915 62.3268828511504 0.0340931607744791
vertex 0.0540587778850717 68.2257462 0.0340931607744791
vertex 6.35 76.1632462 0.0340931607744791
endloop
endfacet
facet normal 0.0 0.0 -1.0
outer loop
vertex 0.0540587778850717 55.560468 0.0340931607744791
vertex 1.57661383214915 62.3268828511504 0.0340931607744791
vertex 1.49547470599999 61.71057 0.0340931607744791
endloop
endfacet
facet normal 0.0 0.0 -1.0
outer loop
vertex 1.57661383214915 62.3268828511504 0.0340931607744791
vertex 6.35 76.1632462 0.0340931607744791
vertex 1.8145017132383 62.901195 0.0340931607744791
endloop
endfacet
facet normal 0.0 0.0 -1.0
outer loop
vertex 1.8145017132383 62.901195 0.0340931607744791
vertex 6.35 76.1632462 0.0340931607744791
vertex 2.19292668329953 63.3943680227005 0.0340931607744791
endloop
endfacet
facet normal 0.0 0.0 -1.0
outer loop
vertex 2.19292668329953 63.3943680227005 0.0340931607744791
vertex 6.35 76.1632462 0.0340931607744791
vertex 2.68609970599999 63.7727929927617 0.0340931607744791
endloop
endfacet
facet normal 0.0 0.0 -1.0
outer loop
vertex 2.68609970599999 63.7727929927617 0.0340931607744791
vertex 6.35 76.1632462 0.0340931607744791
vertex 3.26041185484961 64.0106808738508 0.0340931607744791
endloop
endfacet
facet normal 0.0 0.0 -1.0
outer loop
vertex 3.26041185484961 64.0106808738508 0.0340931607744791
vertex 6.35 76.1632462 0.0340931607744791
vertex 3.87672470599999 64.09182 0.0340931607744791
endloop
endfacet
facet normal 0.0 0.0 -1.0
outer loop
vertex 3.87672470599999 64.09182 0.0340931607744791
vertex 6.35 76.1632462 0.0340931607744791
vertex 4.49303755715037 64.0106808738508 0.0340931607744791
endloop
endfacet
facet normal 0.0 0.0 -1.0
outer loop
vertex 4.49303755715037 64.0106808738508 0.0340931607744791
vertex 6.35 76.1632462 0.0340931607744791
vertex 5.06734970599999 63.7727929927617 0.0340931607744791
endloop
endfacet
facet normal 0.0 0.0 -1.0
outer loop
vertex 5.06734970599999 63.7727929927617 0.0340931607744791
vertex 6.35 76.1632462 0.0340931607744791
vertex 5.56052272870046 63.3943680227005 0.0340931607744791
endloop
endfacet
facet normal 0.0 0.0 -1.0
outer loop
vertex 5.56052272870046 63.3943680227005 0.0340931607744791
vertex 6.35 76.1632462 0.0340931607744791
vertex 5.93894769876169 62.901195 0.0340931607744791
endloop
endfacet
facet normal 0.0 0.0 -1.0
outer loop
vertex 5.93894769876169 62.901195 0.0340931607744791
vertex 6.35 76.1632462 0.0340931607744791
vertex 6.17683557985084 62.3268828511504 0.0340931607744791
endloop
endfacet
facet normal 0.0 0.0 -1.0
outer loop
vertex 6.17683557985084 62.3268828511504 0.0340931607744791
vertex 6.35 76.1632462 0.0340931607744791
vertex 6.25797470599999 61.71057 0.0340931607744791
endloop
endfacet
facet normal -1.51488868225998e-016 -1.0 0.0
outer loop
vertex 3.87672470599999 64.09182 5.14982459999999
vertex 3.26041185484961 64.0106808738508 0.0340931607744791
vertex 3.87672470599999 64.09182 0.0340931607744791
endloop
endfacet
facet normal 0.258819045102521 -0.965925826289068 0.0
outer loop
vertex 3.26041185484961 64.0106808738508 0.0340931607744791
vertex 3.87672470599999 64.09182 5.14982459999999
vertex 3.26041185484961 64.0106808738508 5.14982459999999
endloop
endfacet
facet normal -0.499999999999995 -0.866025403784442 0.0
outer loop
vertex 5.06734970599999 63.7727929927617 5.14982459999999
vertex 4.49303755715037 64.0106808738508 0.0340931607744791
vertex 5.06734970599999 63.7727929927617 0.0340931607744791
endloop
endfacet
facet normal -0.258819045102521 -0.965925826289068 0.0
outer loop
vertex 4.49303755715037 64.0106808738508 0.0340931607744791
vertex 5.06734970599999 63.7727929927617 5.14982459999999
vertex 4.49303755715037 64.0106808738508 5.14982459999999
endloop
endfacet
facet normal -0.707106781186547 -0.707106781186548 0.0
outer loop
vertex 5.56052272870046 63.3943680227005 5.14982459999999
vertex 5.93894769876169 62.901195 0.0340931607744791
vertex 5.93894769876169 62.901195 5.14982459999999
endloop
endfacet
facet normal -0.866025403784439 -0.5 0.0
outer loop
vertex 5.93894769876169 62.901195 0.0340931607744791
vertex 5.56052272870046 63.3943680227005 5.14982459999999
vertex 5.56052272870046 63.3943680227005 0.0340931607744791
endloop
endfacet
facet normal -0.866025403784439 -0.5 0.0
outer loop
vertex 5.93894769876169 62.901195 5.14982459999999
vertex 6.17683557985084 62.3268828511504 0.0340931607744791
vertex 6.17683557985084 62.3268828511504 5.14982459999999
endloop
endfacet
facet normal -0.965925826289068 -0.258819045102522 0.0
outer loop
vertex 6.17683557985084 62.3268828511504 0.0340931607744791
vertex 5.93894769876169 62.901195 5.14982459999999
vertex 5.93894769876169 62.901195 0.0340931607744791
endloop
endfacet
facet normal 0.0 1.0 0.0
outer loop
vertex 6.35 76.1632462 5.14982459999999
vertex 39.0428584996496 76.1632462 0.0340931607744791
vertex 6.35 76.1632462 0.0340931607744791
endloop
endfacet
facet normal 0.0 1.0 0.0
outer loop
vertex 39.0428584996496 76.1632462 0.0340931607744791
vertex 6.35 76.1632462 5.14982459999999
vertex 39.0428584996496 76.1632462 5.14982459999999
endloop
endfacet
facet normal 1.0 0.0 0.0
outer loop
vertex 39.0428584996496 68.2257462 0.0340931607744791
vertex 39.0428584996496 55.560468 5.14982459999999
vertex 39.0428584996496 55.560468 0.0340931607744791
endloop
endfacet
facet normal 1.0 0.0 0.0
outer loop
vertex 39.0428584996496 55.560468 5.14982459999999
vertex 39.0428584996496 68.2257462 0.0340931607744791
vertex 39.0428584996496 68.2257462 5.14982459999999
endloop
endfacet
facet normal 0.499999999999996 -0.866025403784441 0.0
outer loop
vertex 2.68609970599999 63.7727929927617 5.14982459999999
vertex 2.19292668329953 63.3943680227005 0.0340931607744791
vertex 2.68609970599999 63.7727929927617 0.0340931607744791
endloop
endfacet
facet normal 0.707106781186548 -0.707106781186547 0.0
outer loop
vertex 2.19292668329953 63.3943680227005 0.0340931607744791
vertex 2.68609970599999 63.7727929927617 5.14982459999999
vertex 2.19292668329953 63.3943680227005 5.14982459999999
endloop
endfacet
facet normal 0.258819045102521 -0.965925826289068 0.0
outer loop
vertex 3.26041185484961 64.0106808738508 5.14982459999999
vertex 2.68609970599999 63.7727929927617 0.0340931607744791
vertex 3.26041185484961 64.0106808738508 0.0340931607744791
endloop
endfacet
facet normal 0.499999999999996 -0.866025403784441 0.0
outer loop
vertex 2.68609970599999 63.7727929927617 0.0340931607744791
vertex 3.26041185484961 64.0106808738508 5.14982459999999
vertex 2.68609970599999 63.7727929927617 5.14982459999999
endloop
endfacet
facet normal 0.0 -1.0 0.0
outer loop
vertex 47.6451018996496 68.2257462 5.14982459999999
vertex 39.0428584996496 68.2257462 0.0340931607744791
vertex 47.6451018996496 68.2257462 0.0340931607744791
endloop
endfacet
facet normal 0.0 -1.0 0.0
outer loop
vertex 39.0428584996496 68.2257462 0.0340931607744791
vertex 47.6451018996496 68.2257462 5.14982459999999
vertex 39.0428584996496 68.2257462 5.14982459999999
endloop
endfacet
facet normal 0.866025403784439 0.5 0.0
outer loop
vertex 1.8145017132383 60.519945 0.0340931607744791
vertex 2.19292668329953 60.0267719772995 5.14982459999999
vertex 2.19292668329953 60.0267719772995 0.0340931607744791
endloop
endfacet
facet normal 0.707106781186547 0.707106781186548 0.0
outer loop
vertex 2.19292668329953 60.0267719772995 5.14982459999999
vertex 1.8145017132383 60.519945 0.0340931607744791
vertex 1.8145017132383 60.519945 5.14982459999999
endloop
endfacet
facet normal 7.12888791651753e-017 1.0 0.0
outer loop
vertex 3.87672470599999 59.32932 5.14982459999999
vertex 4.49303755715037 59.4104591261492 0.0340931607744791
vertex 3.87672470599999 59.32932 0.0340931607744791
endloop
endfacet
facet normal -0.258819045102521 0.965925826289068 0.0
outer loop
vertex 4.49303755715037 59.4104591261492 0.0340931607744791
vertex 3.87672470599999 59.32932 5.14982459999999
vertex 4.49303755715037 59.4104591261492 5.14982459999999
endloop
endfacet
facet normal -0.783464875399239 0.621436069934514 0.0
outer loop
vertex 6.35 76.1632462 5.14982459999999
vertex 0.0540587778850717 68.2257462 0.0340931607744791
vertex 0.0540587778850717 68.2257462 5.14982459999999
endloop
endfacet
facet normal -0.783464875399239 0.621436069934514 0.0
outer loop
vertex 0.0540587778850717 68.2257462 0.0340931607744791
vertex 6.35 76.1632462 5.14982459999999
vertex 6.35 76.1632462 0.0340931607744791
endloop
endfacet
facet normal -0.866025403784439 0.5 0.0
outer loop
vertex 5.93894769876169 60.519945 5.14982459999999
vertex 5.56052272870046 60.0267719772995 0.0340931607744791
vertex 5.56052272870046 60.0267719772995 5.14982459999999
endloop
endfacet
facet normal -0.707106781186547 0.707106781186548 0.0
outer loop
vertex 5.56052272870046 60.0267719772995 0.0340931607744791
vertex 5.93894769876169 60.519945 5.14982459999999
vertex 5.93894769876169 60.519945 0.0340931607744791
endloop
endfacet
facet normal -0.784783082113443 -0.619770533365797 -0.0
outer loop
vertex 0.0540587778850717 55.560468 5.14982459999999
vertex 6.35 47.5882462 0.0340931607744791
vertex 6.35 47.5882462 5.14982459999999
endloop
endfacet
facet normal -0.784783082113443 -0.619770533365797 -0.0
outer loop
vertex 6.35 47.5882462 0.0340931607744791
vertex 0.0540587778850717 55.560468 5.14982459999999
vertex 0.0540587778850717 55.560468 0.0340931607744791
endloop
endfacet
facet normal 0.0 1.0 0.0
outer loop
vertex 39.0428584996496 55.560468 5.14982459999999
vertex 47.6451018996496 55.560468 0.0340931607744791
vertex 39.0428584996496 55.560468 0.0340931607744791
endloop
endfacet
facet normal 0.0 1.0 0.0
outer loop
vertex 47.6451018996496 55.560468 0.0340931607744791
vertex 39.0428584996496 55.560468 5.14982459999999
vertex 47.6451018996496 55.560468 5.14982459999999
endloop
endfacet
facet normal 0.499999999999995 0.866025403784441 0.0
outer loop
vertex 2.68609970599999 59.6483470072383 5.14982459999999
vertex 3.26041185484962 59.4104591261492 0.0340931607744791
vertex 2.68609970599999 59.6483470072383 0.0340931607744791
endloop
endfacet
facet normal 0.258819045102521 0.965925826289068 0.0
outer loop
vertex 3.26041185484962 59.4104591261492 0.0340931607744791
vertex 2.68609970599999 59.6483470072383 5.14982459999999
vertex 3.26041185484962 59.4104591261492 5.14982459999999
endloop
endfacet
facet normal 0.707106781186547 0.707106781186548 0.0
outer loop
vertex 2.19292668329953 60.0267719772995 5.14982459999999
vertex 2.68609970599999 59.6483470072383 0.0340931607744791
vertex 2.19292668329953 60.0267719772995 0.0340931607744791
endloop
endfacet
facet normal 0.499999999999995 0.866025403784441 0.0
outer loop
vertex 2.68609970599999 59.6483470072383 0.0340931607744791
vertex 2.19292668329953 60.0267719772995 5.14982459999999
vertex 2.68609970599999 59.6483470072383 5.14982459999999
endloop
endfacet
facet normal 0.0 -1.0 0.0
outer loop
vertex 39.0428584996496 47.5882462 5.14982459999999
vertex 6.35 47.5882462 0.0340931607744791
vertex 39.0428584996496 47.5882462 0.0340931607744791
endloop
endfacet
facet normal 0.0 -1.0 0.0
outer loop
vertex 6.35 47.5882462 0.0340931607744791
vertex 39.0428584996496 47.5882462 5.14982459999999
vertex 6.35 47.5882462 5.14982459999999
endloop
endfacet
facet normal 1.0 2.85155516660701e-016 0.0
outer loop
vertex 1.49547470599999 61.71057 0.0340931607744791
vertex 1.57661383214915 61.0942571488496 5.14982459999999
vertex 1.57661383214915 61.0942571488496 0.0340931607744791
endloop
endfacet
facet normal 0.965925826289068 0.258819045102522 0.0
outer loop
vertex 1.57661383214915 61.0942571488496 5.14982459999999
vertex 1.49547470599999 61.71057 0.0340931607744791
vertex 1.49547470599999 61.71057 5.14982459999999
endloop
endfacet
facet normal -1.0 -5.79222143217049e-016 0.0
outer loop
vertex 6.25797470599999 61.71057 5.14982459999999
vertex 6.17683557985084 61.0942571488496 0.0340931607744791
vertex 6.17683557985084 61.0942571488496 5.14982459999999
endloop
endfacet
facet normal -0.965925826289068 0.258819045102521 0.0
outer loop
vertex 6.17683557985084 61.0942571488496 0.0340931607744791
vertex 6.25797470599999 61.71057 5.14982459999999
vertex 6.25797470599999 61.71057 0.0340931607744791
endloop
endfacet
facet normal 0.965925826289068 -0.258819045102521 0.0
outer loop
vertex 1.57661383214915 62.3268828511504 0.0340931607744791
vertex 1.49547470599999 61.71057 5.14982459999999
vertex 1.49547470599999 61.71057 0.0340931607744791
endloop
endfacet
facet normal 1.0 2.85155516660701e-016 0.0
outer loop
vertex 1.49547470599999 61.71057 5.14982459999999
vertex 1.57661383214915 62.3268828511504 0.0340931607744791
vertex 1.57661383214915 62.3268828511504 5.14982459999999
endloop
endfacet
facet normal 0.0 0.0 1.0
outer loop
vertex 0.0540587778850717 68.2257462 5.14982459999999
vertex 1.57661383214915 62.3268828511504 5.14982459999999
vertex 6.35 76.1632462 5.14982459999999
endloop
endfacet
facet normal 0.0 0.0 1.0
outer loop
vertex 1.57661383214915 62.3268828511504 5.14982459999999
vertex 0.0540587778850717 68.2257462 5.14982459999999
vertex 1.49547470599999 61.71057 5.14982459999999
endloop
endfacet
facet normal 0.0 0.0 1.0
outer loop
vertex 6.35 76.1632462 5.14982459999999
vertex 1.57661383214915 62.3268828511504 5.14982459999999
vertex 1.8145017132383 62.901195 5.14982459999999
endloop
endfacet
facet normal 0.0 0.0 1.0
outer loop
vertex 6.35 76.1632462 5.14982459999999
vertex 1.8145017132383 62.901195 5.14982459999999
vertex 2.19292668329953 63.3943680227005 5.14982459999999
endloop
endfacet
facet normal 0.0 0.0 1.0
outer loop
vertex 6.35 76.1632462 5.14982459999999
vertex 2.19292668329953 63.3943680227005 5.14982459999999
vertex 2.68609970599999 63.7727929927617 5.14982459999999
endloop
endfacet
facet normal 0.0 0.0 1.0
outer loop
vertex 6.35 76.1632462 5.14982459999999
vertex 2.68609970599999 63.7727929927617 5.14982459999999
vertex 3.26041185484961 64.0106808738508 5.14982459999999
endloop
endfacet
facet normal 0.0 0.0 1.0
outer loop
vertex 6.35 76.1632462 5.14982459999999
vertex 3.26041185484961 64.0106808738508 5.14982459999999
vertex 3.87672470599999 64.09182 5.14982459999999
endloop
endfacet
facet normal 0.0 0.0 1.0
outer loop
vertex 6.35 76.1632462 5.14982459999999
vertex 3.87672470599999 64.09182 5.14982459999999
vertex 4.49303755715037 64.0106808738508 5.14982459999999
endloop
endfacet
facet normal 0.0 0.0 1.0
outer loop
vertex 6.35 76.1632462 5.14982459999999
vertex 4.49303755715037 64.0106808738508 5.14982459999999
vertex 5.06734970599999 63.7727929927617 5.14982459999999
endloop
endfacet
facet normal 0.0 0.0 1.0
outer loop
vertex 6.35 76.1632462 5.14982459999999
vertex 5.06734970599999 63.7727929927617 5.14982459999999
vertex 5.56052272870046 63.3943680227005 5.14982459999999
endloop
endfacet
facet normal 0.0 0.0 1.0
outer loop
vertex 6.35 76.1632462 5.14982459999999
vertex 5.56052272870046 63.3943680227005 5.14982459999999
vertex 5.93894769876169 62.901195 5.14982459999999
endloop
endfacet
facet normal 0.0 0.0 1.0
outer loop
vertex 6.35 76.1632462 5.14982459999999
vertex 5.93894769876169 62.901195 5.14982459999999
vertex 6.17683557985084 62.3268828511504 5.14982459999999
endloop
endfacet
facet normal 0.0 0.0 1.0
outer loop
vertex 6.35 76.1632462 5.14982459999999
vertex 6.17683557985084 62.3268828511504 5.14982459999999
vertex 6.25797470599999 61.71057 5.14982459999999
endloop
endfacet
facet normal 0.0 0.0 1.0
outer loop
vertex 6.35 76.1632462 5.14982459999999
vertex 6.25797470599999 61.71057 5.14982459999999
vertex 6.35 47.5882462 5.14982459999999
endloop
endfacet
facet normal 0.0 0.0 1.0
outer loop
vertex 6.35 76.1632462 5.14982459999999
vertex 6.35 47.5882462 5.14982459999999
vertex 12.7540587778851 49.1757462 5.1498246
endloop
endfacet
facet normal 0.0 0.0 1.0
outer loop
vertex 12.7540587778851 49.1757462 5.1498246
vertex 6.35 47.5882462 5.14982459999999
vertex 39.0428584996496 47.5882462 5.14982459999999
endloop
endfacet
facet normal 0.0 0.0 1.0
outer loop
vertex 12.7540587778851 49.1757462 5.1498246
vertex 39.0428584996496 47.5882462 5.14982459999999
vertex 34.9790587778851 49.1757462 5.1498246
endloop
endfacet
facet normal 0.0 0.0 1.0
outer loop
vertex 34.9790587778851 49.1757462 5.1498246
vertex 39.0428584996496 47.5882462 5.14982459999999
vertex 34.9790587778851 52.3507462 5.1498246
endloop
endfacet
facet normal 0.0 0.0 1.0
outer loop
vertex 34.9790587778851 52.3507462 5.1498246
vertex 39.0428584996496 47.5882462 5.14982459999999
vertex 34.9790587778851 71.4007462 5.1498246
endloop
endfacet
facet normal 0.0 0.0 1.0
outer loop
vertex 34.9790587778851 71.4007462 5.1498246
vertex 39.0428584996496 47.5882462 5.14982459999999
vertex 34.9790587778851 74.5757462 5.1498246
endloop
endfacet
facet normal 0.0 0.0 1.0
outer loop
vertex 42.1675045029346 44.2166684725596 5.14982459999999
vertex 39.0428584996496 55.560468 5.14982459999999
vertex 39.0428584996496 47.5882462 5.14982459999999
endloop
endfacet
facet normal 0.0 0.0 1.0
outer loop
vertex 39.0428584996496 55.560468 5.14982459999999
vertex 42.1675045029346 44.2166684725596 5.14982459999999
vertex 47.6451018996496 55.560468 5.14982459999999
endloop
endfacet
facet normal 0.0 0.0 1.0
outer loop
vertex 47.6451018996496 55.560468 5.14982459999999
vertex 42.1675045029346 44.2166684725596 5.14982459999999
vertex 50.7697479029346 52.1888902725596 5.14982459999999
endloop
endfacet
facet normal 0.0 0.0 1.0
outer loop
vertex 6.35 76.1632462 5.14982459999999
vertex 12.7540587778851 74.5757462 5.14982459999999
vertex 39.0428584996496 76.1632462 5.14982459999999
endloop
endfacet
facet normal 0.0 0.0 1.0
outer loop
vertex 12.7540587778851 74.5757462 5.14982459999999
vertex 6.35 76.1632462 5.14982459999999
vertex 12.7540587778851 49.1757462 5.1498246
endloop
endfacet
facet normal 0.0 0.0 1.0
outer loop
vertex 12.7540587778851 74.5757462 5.14982459999999
vertex 12.7540587778851 49.1757462 5.1498246
vertex 12.7540587778851 52.3507462 5.14982459999999
endloop
endfacet
facet normal 0.0 0.0 1.0
outer loop
vertex 12.7540587778851 74.5757462 5.14982459999999
vertex 12.7540587778851 52.3507462 5.14982459999999
vertex 12.7540587778851 71.4007462 5.1498246
endloop
endfacet
facet normal 0.0 0.0 1.0
outer loop
vertex 39.0428584996496 76.1632462 5.14982459999999
vertex 12.7540587778851 74.5757462 5.14982459999999
vertex 34.9790587778851 74.5757462 5.1498246
endloop
endfacet
facet normal 0.0 0.0 1.0
outer loop
vertex 39.0428584996496 76.1632462 5.14982459999999
vertex 34.9790587778851 74.5757462 5.1498246
vertex 39.0428584996496 47.5882462 5.14982459999999
endloop
endfacet
facet normal 0.0 0.0 1.0
outer loop
vertex 39.0428584996496 76.1632462 5.14982459999999
vertex 39.0428584996496 47.5882462 5.14982459999999
vertex 39.0428584996496 55.560468 5.14982459999999
endloop
endfacet
facet normal 0.0 0.0 1.0
outer loop
vertex 39.0428584996496 76.1632462 5.14982459999999
vertex 39.0428584996496 55.560468 5.14982459999999
vertex 39.0428584996496 68.2257462 5.14982459999999
endloop
endfacet
facet normal 0.0 0.0 1.0
outer loop
vertex 39.0428584996496 76.1632462 5.14982459999999
vertex 39.0428584996496 68.2257462 5.14982459999999
vertex 47.6451018996496 68.2257462 5.14982459999999
endloop
endfacet
facet normal 0.0 0.0 1.0
outer loop
vertex 39.0428584996496 76.1632462 5.14982459999999
vertex 47.6451018996496 68.2257462 5.14982459999999
vertex 42.160161351606 79.5416144373598 5.14982459999999
endloop
endfacet
facet normal 0.0 0.0 1.0
outer loop
vertex 42.160161351606 79.5416144373598 5.14982459999999
vertex 47.6451018996496 68.2257462 5.14982459999999
vertex 50.762404751606 71.6041144373598 5.14982459999999
endloop
endfacet
facet normal 0.0 0.0 1.0
outer loop
vertex 34.9790587778851 52.3507462 5.1498246
vertex 12.7540587778851 71.4007462 5.1498246
vertex 12.7540587778851 52.3507462 5.14982459999999
endloop
endfacet
facet normal 0.0 0.0 1.0
outer loop
vertex 12.7540587778851 71.4007462 5.1498246
vertex 34.9790587778851 52.3507462 5.1498246
vertex 34.9790587778851 71.4007462 5.1498246
endloop
endfacet
facet normal 0.0 0.0 1.0
outer loop
vertex 0.0540587778850717 55.560468 5.14982459999999
vertex 1.57661383214915 61.0942571488496 5.14982459999999
vertex 0.0540587778850717 68.2257462 5.14982459999999
endloop
endfacet
facet normal 0.0 0.0 1.0
outer loop
vertex 1.57661383214915 61.0942571488496 5.14982459999999
vertex 0.0540587778850717 55.560468 5.14982459999999
vertex 6.35 47.5882462 5.14982459999999
endloop
endfacet
facet normal 0.0 0.0 1.0
outer loop
vertex 0.0540587778850717 68.2257462 5.14982459999999
vertex 1.57661383214915 61.0942571488496 5.14982459999999
vertex 1.49547470599999 61.71057 5.14982459999999
endloop
endfacet
facet normal 0.0 0.0 1.0
outer loop
vertex 1.57661383214915 61.0942571488496 5.14982459999999
vertex 6.35 47.5882462 5.14982459999999
vertex 1.8145017132383 60.519945 5.14982459999999
endloop
endfacet
facet normal 0.0 0.0 1.0
outer loop
vertex 1.8145017132383 60.519945 5.14982459999999
vertex 6.35 47.5882462 5.14982459999999
vertex 2.19292668329953 60.0267719772995 5.14982459999999
endloop
endfacet
facet normal 0.0 0.0 1.0
outer loop
vertex 2.19292668329953 60.0267719772995 5.14982459999999
vertex 6.35 47.5882462 5.14982459999999
vertex 2.68609970599999 59.6483470072383 5.14982459999999
endloop
endfacet
facet normal 0.0 0.0 1.0
outer loop
vertex 2.68609970599999 59.6483470072383 5.14982459999999
vertex 6.35 47.5882462 5.14982459999999
vertex 3.26041185484962 59.4104591261492 5.14982459999999
endloop
endfacet
facet normal 0.0 0.0 1.0
outer loop
vertex 3.26041185484962 59.4104591261492 5.14982459999999
vertex 6.35 47.5882462 5.14982459999999
vertex 3.87672470599999 59.32932 5.14982459999999
endloop
endfacet
facet normal 0.0 0.0 1.0
outer loop
vertex 3.87672470599999 59.32932 5.14982459999999
vertex 6.35 47.5882462 5.14982459999999
vertex 4.49303755715037 59.4104591261492 5.14982459999999
endloop
endfacet
facet normal 0.0 0.0 1.0
outer loop
vertex 4.49303755715037 59.4104591261492 5.14982459999999
vertex 6.35 47.5882462 5.14982459999999
vertex 5.06734970599999 59.6483470072383 5.14982459999999
endloop
endfacet
facet normal 0.0 0.0 1.0
outer loop
vertex 5.06734970599999 59.6483470072383 5.14982459999999
vertex 6.35 47.5882462 5.14982459999999
vertex 5.56052272870046 60.0267719772995 5.14982459999999
endloop
endfacet
facet normal 0.0 0.0 1.0
outer loop
vertex 5.56052272870046 60.0267719772995 5.14982459999999
vertex 6.35 47.5882462 5.14982459999999
vertex 5.93894769876169 60.519945 5.14982459999999
endloop
endfacet
facet normal 0.0 0.0 1.0
outer loop
vertex 5.93894769876169 60.519945 5.14982459999999
vertex 6.35 47.5882462 5.14982459999999
vertex 6.17683557985084 61.0942571488496 5.14982459999999
endloop
endfacet
facet normal 0.0 0.0 1.0
outer loop
vertex 6.17683557985084 61.0942571488496 5.14982459999999
vertex 6.35 47.5882462 5.14982459999999
vertex 6.25797470599999 61.71057 5.14982459999999
endloop
endfacet
facet normal -0.965925826289068 -0.258819045102522 0.0
outer loop
vertex 6.17683557985084 62.3268828511504 5.14982459999999
vertex 6.25797470599999 61.71057 0.0340931607744791
vertex 6.25797470599999 61.71057 5.14982459999999
endloop
endfacet
facet normal -1.0 -5.79222143217049e-016 0.0
outer loop
vertex 6.25797470599999 61.71057 0.0340931607744791
vertex 6.17683557985084 62.3268828511504 5.14982459999999
vertex 6.17683557985084 62.3268828511504 0.0340931607744791
endloop
endfacet
facet normal -0.258819045102521 0.965925826289068 0.0
outer loop
vertex 4.49303755715037 59.4104591261492 5.14982459999999
vertex 5.06734970599999 59.6483470072383 0.0340931607744791
vertex 4.49303755715037 59.4104591261492 0.0340931607744791
endloop
endfacet
facet normal -0.499999999999995 0.866025403784441 0.0
outer loop
vertex 5.06734970599999 59.6483470072383 0.0340931607744791
vertex 4.49303755715037 59.4104591261492 5.14982459999999
vertex 5.06734970599999 59.6483470072383 5.14982459999999
endloop
endfacet
facet normal 0.965925826289068 0.258819045102522 0.0
outer loop
vertex 1.57661383214915 61.0942571488496 0.0340931607744791
vertex 1.8145017132383 60.519945 5.14982459999999
vertex 1.8145017132383 60.519945 0.0340931607744791
endloop
endfacet
facet normal 0.866025403784439 0.5 0.0
outer loop
vertex 1.8145017132383 60.519945 5.14982459999999
vertex 1.57661383214915 61.0942571488496 0.0340931607744791
vertex 1.57661383214915 61.0942571488496 5.14982459999999
endloop
endfacet
facet normal -0.965925826289068 0.258819045102521 0.0
outer loop
vertex 6.17683557985084 61.0942571488496 5.14982459999999
vertex 5.93894769876169 60.519945 0.0340931607744791
vertex 5.93894769876169 60.519945 5.14982459999999
endloop
endfacet
facet normal -0.866025403784439 0.5 0.0
outer loop
vertex 5.93894769876169 60.519945 0.0340931607744791
vertex 6.17683557985084 61.0942571488496 5.14982459999999
vertex 6.17683557985084 61.0942571488496 0.0340931607744791
endloop
endfacet
facet normal 0.707106781186548 -0.707106781186547 0.0
outer loop
vertex 2.19292668329953 63.3943680227005 0.0340931607744791
vertex 1.8145017132383 62.901195 5.14982459999999
vertex 1.8145017132383 62.901195 0.0340931607744791
endloop
endfacet
facet normal 0.866025403784439 -0.5 0.0
outer loop
vertex 1.8145017132383 62.901195 5.14982459999999
vertex 2.19292668329953 63.3943680227005 0.0340931607744791
vertex 2.19292668329953 63.3943680227005 5.14982459999999
endloop
endfacet
facet normal -0.499999999999995 0.866025403784441 0.0
outer loop
vertex 5.06734970599999 59.6483470072383 5.14982459999999
vertex 5.56052272870046 60.0267719772995 0.0340931607744791
vertex 5.06734970599999 59.6483470072383 0.0340931607744791
endloop
endfacet
facet normal -0.707106781186547 0.707106781186548 0.0
outer loop
vertex 5.56052272870046 60.0267719772995 0.0340931607744791
vertex 5.06734970599999 59.6483470072383 5.14982459999999
vertex 5.56052272870046 60.0267719772995 5.14982459999999
endloop
endfacet
facet normal 0.258819045102521 0.965925826289068 0.0
outer loop
vertex 3.26041185484962 59.4104591261492 5.14982459999999
vertex 3.87672470599999 59.32932 0.0340931607744791
vertex 3.26041185484962 59.4104591261492 0.0340931607744791
endloop
endfacet
facet normal 7.12888791651753e-017 1.0 0.0
outer loop
vertex 3.87672470599999 59.32932 0.0340931607744791
vertex 3.26041185484962 59.4104591261492 5.14982459999999
vertex 3.87672470599999 59.32932 5.14982459999999
endloop
endfacet
facet normal -1.0 -0.0 -0.0
outer loop
vertex 0.0540587778850717 68.2257462 5.14982459999999
vertex 0.0540587778850717 55.560468 0.0340931607744791
vertex 0.0540587778850717 55.560468 5.14982459999999
endloop
endfacet
facet normal -1.0 -0.0 -0.0
outer loop
vertex 0.0540587778850717 55.560468 0.0340931607744791
vertex 0.0540587778850717 68.2257462 5.14982459999999
vertex 0.0540587778850717 68.2257462 0.0340931607744791
endloop
endfacet
facet normal 0.866025403784439 -0.5 0.0
outer loop
vertex 1.8145017132383 62.901195 0.0340931607744791
vertex 1.57661383214915 62.3268828511504 5.14982459999999
vertex 1.57661383214915 62.3268828511504 0.0340931607744791
endloop
endfacet
facet normal 0.965925826289068 -0.258819045102521 0.0
outer loop
vertex 1.57661383214915 62.3268828511504 5.14982459999999
vertex 1.8145017132383 62.901195 0.0340931607744791
vertex 1.8145017132383 62.901195 5.14982459999999
endloop
endfacet
endsolid hexHead
